<svg xmlns="http://www.w3.org/2000/svg" width="1218.671" height="705.351" viewBox="0 0 1218.671 705.351">
  <path id="Icon_awesome-whatsapp" data-name="Icon awesome-whatsapp" d="M328.953,58.472A190.28,190.28,0,0,0,193.364,2.25C87.657,2.25,1.641,88.266,1.641,193.973A191.93,191.93,0,0,0,27.2,289.835L0,389.151l101.648-26.686a191.14,191.14,0,0,0,91.63,23.318h.086c105.621,0,193.537-86.016,193.537-191.723C386.9,142.847,365.138,94.744,328.953,58.472ZM193.364,353.484a159.071,159.071,0,0,1-81.18-22.2l-5.786-3.454-60.281,15.8,16.063-58.812-3.8-6.045a158.827,158.827,0,0,1-24.354-84.807c0-87.83,71.508-159.338,159.424-159.338A157.939,157.939,0,0,1,306.067,81.358c30.054,30.14,48.535,70.126,48.449,112.7,0,87.916-73.321,159.424-161.151,159.424Zm87.4-119.352c-4.75-2.418-28.327-13.991-32.731-15.545-4.4-1.641-7.6-2.418-10.8,2.418s-12.35,15.545-15.2,18.827c-2.764,3.2-5.614,3.627-10.363,1.209-28.154-14.077-46.635-25.131-65.2-57-4.923-8.464,4.923-7.859,14.077-26.168,1.555-3.2.777-5.959-.432-8.377s-10.8-25.995-14.768-35.581c-3.886-9.327-7.859-8.032-10.8-8.2-2.764-.173-5.959-.173-9.154-.173a17.746,17.746,0,0,0-12.782,5.959c-4.4,4.836-16.754,16.409-16.754,39.986s17.186,46.376,19.518,49.572c2.418,3.2,33.768,51.558,81.871,72.371,30.4,13.127,42.317,14.25,57.517,12,9.241-1.382,28.327-11.573,32.3-22.8s3.973-20.813,2.764-22.8C288.708,237.673,285.513,236.464,280.763,234.132Z" transform="translate(0 14.011)" fill="#09d261"/>
  <g id="Grupo_3" data-name="Grupo 3" transform="translate(19 0)">
    <path id="Trazado_71" data-name="Trazado 71" d="M324.429,257.809A36.368,36.368,0,0,0,288.1,294.136V689.068A36.368,36.368,0,0,0,324.429,725.4h818.595a36.368,36.368,0,0,0,36.327-36.327V294.136a36.368,36.368,0,0,0-36.327-36.327Z" transform="translate(-130.204 -177.454)" fill="#fff" opacity="0.69"/>
    <path id="Trazado_72" data-name="Trazado 72" d="M1143.441,727.229h-818.6A37.787,37.787,0,0,1,287.1,689.485V294.553a37.787,37.787,0,0,1,37.744-37.744h818.595a37.787,37.787,0,0,1,37.744,37.744V689.485A37.787,37.787,0,0,1,1143.441,727.229ZM324.846,259.643a34.949,34.949,0,0,0-34.91,34.91V689.485a34.949,34.949,0,0,0,34.91,34.91h818.595a34.949,34.949,0,0,0,34.91-34.91V294.553a34.949,34.949,0,0,0-34.91-34.91Z" transform="translate(-130.621 -177.871)" fill="#3f3d56"/>
    <ellipse id="Elipse_8" data-name="Elipse 8" cx="2.874" cy="10.974" rx="2.874" ry="10.974" transform="matrix(0.04, -0.999, 0.999, 0.04, 408.372, 529.237)" fill="#e6e6e6"/>
    <ellipse id="Elipse_9" data-name="Elipse 9" cx="2.874" cy="10.974" rx="2.874" ry="10.974" transform="matrix(0.04, -0.999, 0.999, 0.04, 478.237, 525.537)" fill="#3f3d56"/>
    <ellipse id="Elipse_10" data-name="Elipse 10" cx="2.874" cy="10.974" rx="2.874" ry="10.974" transform="matrix(0.04, -0.999, 0.999, 0.04, 381.531, 507.681)" fill="#09d261"/>
    <ellipse id="Elipse_11" data-name="Elipse 11" cx="2.58" cy="4.882" rx="2.58" ry="4.882" transform="translate(359.849 499.262) rotate(-83.498)" fill="#e6e6e6"/>
    <ellipse id="Elipse_12" data-name="Elipse 12" cx="2.58" cy="4.882" rx="2.58" ry="4.882" transform="translate(343.727 482.751) rotate(-83.498)" fill="#3f3d56"/>
    <ellipse id="Elipse_13" data-name="Elipse 13" cx="2.58" cy="4.882" rx="2.58" ry="4.882" transform="translate(434.836 510.865) rotate(-83.498)" fill="#e6e6e6"/>
    <ellipse id="Elipse_14" data-name="Elipse 14" cx="2.58" cy="4.882" rx="2.58" ry="4.882" transform="translate(402.865 517.891) rotate(-83.498)" fill="#09d261"/>
    <ellipse id="Elipse_15" data-name="Elipse 15" cx="2.58" cy="4.882" rx="2.58" ry="4.882" transform="translate(454.578 529.208) rotate(-83.498)" fill="#3f3d56"/>
    <path id="Trazado_73" data-name="Trazado 73" d="M176.665,532.707a1.681,1.681,0,0,0,1.686,1.686h1196.3a1.686,1.686,0,1,0,0-3.372H178.351a1.681,1.681,0,0,0-1.686,1.686Z" transform="translate(-176.665 -63.544)" fill="#ccc"/>
    <path id="Trazado_74" data-name="Trazado 74" d="M493.233,554.215a3.978,3.978,0,0,1-2.883-6.895l.273-1.084-.108-.26a10.682,10.682,0,0,0-19.7.073c-3.223,7.762-7.326,15.537-8.336,23.745a31.6,31.6,0,0,0,.555,10.869A126.7,126.7,0,0,1,451.5,528.04a122.293,122.293,0,0,1,.759-13.643q.628-5.571,1.744-11.061a128.17,128.17,0,0,1,25.418-54.321A34.11,34.11,0,0,0,493.608,434.3a26.018,26.018,0,0,0,2.366-7.11c-.691.091-2.6-10.427-2.083-11.073-.962-1.46-2.685-2.186-3.736-3.612-5.228-7.088-12.43-5.85-16.19,3.781-8.032,4.054-8.11,10.777-3.181,17.243,3.135,4.114,3.566,9.68,6.318,14.084-.283.362-.578.713-.861,1.076a129,129,0,0,0-13.464,21.33,53.625,53.625,0,0,0-3.2-24.908c-3.064-7.392-8.808-13.618-13.866-20.009-6.076-7.676-18.534-4.326-19.6,5.4q-.016.141-.03.283,1.127.636,2.206,1.35a5.4,5.4,0,0,1-2.175,9.819l-.11.017A53.69,53.69,0,0,0,427.411,450c-6.489,25.094,7.52,34.234,27.523,34.644.442.226.872.453,1.313.668a131.665,131.665,0,0,0-7.087,33.353,124.881,124.881,0,0,0,.091,20.164l-.034-.238a33,33,0,0,0-11.265-19.054c-8.669-7.121-20.917-9.744-30.269-15.468a6.193,6.193,0,0,0-9.485,6.025q.019.125.038.25A36.247,36.247,0,0,1,402.3,512.3q1.127.636,2.206,1.35a5.4,5.4,0,0,1-2.175,9.819l-.11.017-.226.034A53.733,53.733,0,0,0,411.878,539c4.057,21.906,21.483,23.984,40.124,17.605h.011a131.629,131.629,0,0,0,8.842,25.813h31.587c.113-.351.215-.713.317-1.064a35.894,35.894,0,0,1-8.741-.521c2.344-2.876,4.687-5.774,7.031-8.65a1.975,1.975,0,0,0,.147-.17c1.189-1.472,2.389-2.932,3.578-4.4v0a52.569,52.569,0,0,0-1.54-13.392Z" transform="translate(-84.325 -114.843)" fill="#f2f2f2"/>
    <path id="Trazado_75" data-name="Trazado 75" d="M399.343,568.585a6.45,6.45,0,0,1-4.674-11.179l.442-1.757q-.087-.211-.176-.422a17.321,17.321,0,0,0-31.95.119c-5.226,12.586-11.879,25.193-13.517,38.5a51.242,51.242,0,0,0,.9,17.623,205.436,205.436,0,0,1-18.688-85.324,198.28,198.28,0,0,1,1.23-22.12q1.019-9.032,2.827-17.935a207.817,207.817,0,0,1,41.212-88.078,55.305,55.305,0,0,0,23-23.864,42.189,42.189,0,0,0,3.837-11.528c-1.12.147-4.222-16.907-3.378-17.953-1.56-2.368-4.354-3.545-6.058-5.856-8.476-11.492-20.154-9.486-26.251,6.131-13.023,6.573-13.15,17.474-5.158,27.958,5.084,6.67,5.783,15.7,10.243,22.836-.459.588-.936,1.157-1.4,1.744a209.166,209.166,0,0,0-21.831,34.585,86.949,86.949,0,0,0-5.191-40.386c-4.969-11.986-14.282-22.081-22.483-32.443-9.851-12.447-30.051-7.015-31.787,8.763q-.025.229-.049.458,1.827,1.031,3.577,2.188a8.749,8.749,0,0,1-3.527,15.921l-.178.028a87.053,87.053,0,0,0,2.295,13.015c-10.521,40.688,12.193,55.507,44.626,56.173.716.367,1.414.734,2.13,1.083a213.488,213.488,0,0,0-11.492,54.08,202.485,202.485,0,0,0,.147,32.694l-.055-.385a53.505,53.505,0,0,0-18.265-30.9c-14.056-11.547-33.915-15.8-49.079-25.08-7.3-4.468-16.654,1.306-15.38,9.769q.031.2.062.405a58.784,58.784,0,0,1,6.59,3.176q1.827,1.031,3.577,2.188a8.749,8.749,0,0,1-3.527,15.921l-.179.027-.367.055a87.127,87.127,0,0,0,16.026,25.094c6.579,35.519,34.834,38.889,65.058,28.545h.018a213.422,213.422,0,0,0,14.337,41.856h51.216c.184-.569.349-1.157.514-1.726a58.187,58.187,0,0,1-14.172-.844c3.8-4.663,7.6-9.362,11.4-14.025a3.183,3.183,0,0,0,.239-.275c1.927-2.386,3.873-4.754,5.8-7.141v0a85.242,85.242,0,0,0-2.5-21.714Z" transform="translate(-148.12 -146.739)" fill="#f2f2f2"/>
    <path id="Trazado_76" data-name="Trazado 76" d="M876.868,224.767c-3.439-26.355-64.228-24.673-69.968.122-3.045-1.9-10.79-.586-13.679,1.6s-4.74,5.407-6.553,8.53c-2.474,4.339-5.04,8.832-5.587,13.807-.571,4.965,1.38,10.59,5.881,12.8,3.571,1.762,11.428.572,15.354-.217,2.739-.545,5.038-1.022,6.99-1.489a13.424,13.424,0,0,0-1.277-9.09,10.9,10.9,0,0,1,7.477,5.531c.308.593,11.445,84.428,11.445,84.428a48.379,48.379,0,0,0,9.176.229,105.267,105.267,0,0,0,1.025-31.281,91.16,91.16,0,0,1,7.607,18.773,111.407,111.407,0,0,1,2.582,11.081c26.505-4.956,62.334-22.028,68.872-51.015l-.108-.28a4.117,4.117,0,0,1,6.778-4.4c.8.822,1.512,1.525,2.113,2.07C922.671,267.456,908.63,250.8,876.868,224.767Z" transform="translate(75.293 -199.205)" fill="#2f2e41"/>
    <path id="Trazado_77" data-name="Trazado 77" d="M403.229,494.182l-14.859-7.769,23.564-62.292,21.933,11.467Z" transform="translate(161.922 176.828)" fill="#a0616a"/>
    <path id="Trazado_78" data-name="Trazado 78" d="M533.456,679.6a7.507,7.507,0,0,0,3.168,10.119l29.547,15.445,10.588-7.869-3.513,11.561,11.145,5.836,16.505-39.2-3.763-2.254-15.328-9.232-4.95-2.969-5.56,10.634-32.118,3.96a7.494,7.494,0,0,0-5.722,3.965Z" transform="translate(-28.264 -9.337)" fill="#2f2e41"/>
    <path id="Trazado_79" data-name="Trazado 79" d="M391.293,329.83l-10.808-12.82,45.41-48.72,15.952,18.922Z" transform="translate(158.635 111.858)" fill="#a0616a"/>
    <path id="Trazado_80" data-name="Trazado 80" d="M526.6,496.815a7.507,7.507,0,0,0-.9,10.565L547.19,532.87l12.78-3.271-7.631,9.368,8.1,9.623,30.126-30.019-2.628-3.512-10.687-14.352-3.456-4.623-9.175,7.735-31.223-8.5A7.494,7.494,0,0,0,526.6,496.815Z" transform="translate(-31.877 -78.541)" fill="#2f2e41"/>
    <path id="Trazado_81" data-name="Trazado 81" d="M1034.529,534.23s45.889,98.22-144.143,71.754c0,0-101.246-112.2-98.321-125.7,0,0-43.091-43.787-40.983-44.584s3.409-2.529-.075-2.371-3.484-5.029-3.484-5.029-77.876,84.453-143.45,126.361l-22.671-25.5s8.842-27.657,13.092-27.657,5.716,1.022,6.4-4.448-2.7-10.167,1.826-10.652,98.338-110.127,98.338-110.127,10.121-36.113,41.045-29.123S933.715,484.776,933.715,484.776Z" transform="translate(-7.918 -140.582)" fill="#2f2e41"/>
    <path id="Trazado_82" data-name="Trazado 82" d="M961.631,553.783,710.578,551.7l-109.1,172.865-30.834-16.321,6.835-2.885s-2.069-24.026.466-30.108S588.017,671,588.017,671L651.627,524.3a61.544,61.544,0,0,1,63.328-41.69c52.634-7.676,138.074-1.543,226.839,5.989Z" transform="translate(-12.405 -85.2)" fill="#2f2e41"/>
    <path id="Trazado_83" data-name="Trazado 83" d="M750.052,324.24a18.559,18.559,0,0,1,15.6,20.655,17.816,17.816,0,0,1-.652,2.87l51.586,39.13-10.645,33.161-64.871-61.242a18.508,18.508,0,0,1-11.44-19.485,17.712,17.712,0,0,1,19.938-15.161Q749.812,324.2,750.052,324.24Z" transform="translate(53.822 -149.855)" fill="#a0616a"/>
    <path id="Trazado_84" data-name="Trazado 84" d="M968.8,343.414l-18.548,51.349-72.533,102.5s-.6-.255-1.672-.708c-6.234-2.692-28.877-12.582-50.173-23.819-19.993-10.556-38.824-22.3-41.743-30.379q-.468-1.275-.85-2.465v-.014a53.144,53.144,0,0,1-2.536-12.7c-.241-3.33-.028-5.115-.482-5.328-.354-.156-1.091.609-2.72,2.338-.113.113-.213.227-.326.326-5.894,5.909-13.135,5.143-11.364,2.338,1.814-2.876.864-2.82-1.8-5.824-1.984-2.239-8.431-11-11.6-15.317-1.091-1.488-1.785-2.451-1.785-2.451l1.091-1.714,3.018-4.733,14.354-22.5.793-1.233s29.5,6.815,33.425,13.291-5.937,6.263,3.939,6.475,19.95-13.22,12.738.142-5.313,18.009,3.613,15.9c3.627-.864,9.366,1.87,14.892,5.413v.014a116.928,116.928,0,0,1,9.99,7.269c3.415,2.749,5.724,4.832,5.724,4.832l56.025-113.666,6.206-12.582a32.119,32.119,0,0,1,18.788-16.295l1.941,3.387a384.211,384.211,0,0,1,31.6,56.153Z" transform="translate(62.651 -166.587)" fill="#00a884"/>
    <path id="Trazado_85" data-name="Trazado 85" d="M950.162,514.319c17.173,4-1.1,129-21.566,129.394-148.777,2.834-103.478-80.637-111.456-88.629s-15.175-2.267-7.977-14.722c5.243-9.068,13.022-7.722,13.135-12.809.057-1.9-.949-4.676-3.557-9.238-9.578-16.776-9.578-21.778-9.578-21.778a61.555,61.555,0,0,1-5.03-15.87,75.358,75.358,0,0,1-.567-24.768,80.525,80.525,0,0,1,13.22-33.652v-.014c.723-1.077,1.474-2.168,2.267-3.245,1.8-2.451,11.775-1.984,11.775-1.984l21.254-89.267-12.3-35.593,58.25-27.29,15.487,26.95,1.941,3.386a384.2,384.2,0,0,1,31.6,56.153c8.6,19.143,15.671,40.4,15.926,58.888.68,48.218-7.637,62.557-7.637,62.557s20.191,15.09,10.089,24.315S932.989,510.324,950.162,514.319Z" transform="translate(84.391 -174.517)" fill="#09d261"/>
    <path id="Trazado_86" data-name="Trazado 86" d="M724.391,316.419l-9.5,7.22a8.932,8.932,0,0,0-1.688,12.5l22.89,30.086,13.517,17.75a8.917,8.917,0,0,0,12.475,1.686l9.515-7.228a8.947,8.947,0,0,0,1.677-12.486l-1.4-1.854-27.728-36.433-7.275-9.551A8.9,8.9,0,0,0,724.391,316.419Z" transform="translate(46.273 -153.778)" fill="#3f3d56"/>
    <path id="Trazado_87" data-name="Trazado 87" d="M728.1,315.986l-10.239,7.142a7.633,7.633,0,0,0-1.67,11.294l13.4,16.147,7.141,8.6,4.765,5.739,10.656,12.839a9.322,9.322,0,0,0,12.315,1.532l7.672-5.352,2.553-1.78a7.76,7.76,0,0,0,3.313-7.931,7.651,7.651,0,0,0-1.64-3.386L744.88,322.888l-4.464-5.37a9.309,9.309,0,0,0-12.315-1.532Z" transform="translate(47.535 -153.89)" fill="#f0f2f5"/>
    <path id="Trazado_88" data-name="Trazado 88" d="M734.74,343.714a18.559,18.559,0,0,1,15.6,20.655,17.8,17.8,0,0,1-.652,2.87l51.586,39.129-10.645,33.161-64.871-61.242A18.508,18.508,0,0,1,714.32,358.8a17.712,17.712,0,0,1,19.939-15.161Q734.5,343.674,734.74,343.714Z" transform="translate(47.437 -141.737)" fill="#a0616a"/>
    <path id="Trazado_89" data-name="Trazado 89" d="M936.3,302.878h0a32.048,32.048,0,0,1,23.749,42.287L934.945,414.7,862.4,517.208s-87-36.749-93.586-54.912-.639-24.431-6.587-18.164-13.49,5.524-11.684,2.656.855-2.807-1.8-5.812-13.388-17.768-13.388-17.768l19.253-30.182s29.5,6.81,33.432,13.29-5.948,6.268,3.931,6.479,19.956-13.226,12.74.132-5.313,18.015,3.614,15.9,30.6,17.534,30.6,17.534l62.244-126.248A32.048,32.048,0,0,1,936.3,302.878Z" transform="translate(56.267 -158.933)" fill="#2fe57f"/>
    <circle id="Elipse_16" data-name="Elipse 16" cx="46.181" cy="46.181" r="46.181" transform="translate(857.489 69.434) rotate(-45)" fill="#a0616a"/>
    <path id="Trazado_90" data-name="Trazado 90" d="M902.613,220.225c-3.439-26.355-64.228-24.673-69.968.122-3.045-1.9-10.79-.586-13.679,1.6s-4.74,5.407-6.553,8.53c-2.474,4.339-19.791,19.017-22.385,14.737-5.839-9.631-17.29,11.414-8.5,25.5,2.107,3.378,42.833-2.045,46.759-2.834,2.739-.545-1.951.468,0,0,.63-3.057,6.993-18.85,5.488-21.6a10.9,10.9,0,0,1,7.476,5.531c.308.593,11.445,84.428,11.445,84.428a48.372,48.372,0,0,0,9.176.229,105.276,105.276,0,0,0,1.025-31.281,91.162,91.162,0,0,1,7.607,18.773,111.413,111.413,0,0,1,2.582,11.081c26.505-4.956,62.335-22.028,68.872-51.015C906.216,272.138,934.375,246.255,902.613,220.225Z" transform="translate(74.182 -201.098)" fill="#2f2e41"/>
    <ellipse id="Elipse_17" data-name="Elipse 17" cx="7.449" cy="10.707" rx="7.449" ry="10.707" transform="matrix(0.144, -0.99, 0.99, 0.144, 550.304, 155.848)" fill="#e6e6e6"/>
    <ellipse id="Elipse_18" data-name="Elipse 18" cx="7.449" cy="10.707" rx="7.449" ry="10.707" transform="matrix(0.144, -0.99, 0.99, 0.144, 619.977, 149.05)" fill="#3f3d56"/>
    <ellipse id="Elipse_19" data-name="Elipse 19" cx="7.449" cy="10.707" rx="7.449" ry="10.707" transform="matrix(0.144, -0.99, 0.99, 0.144, 531.226, 99.443)" fill="#09d261"/>
    <ellipse id="Elipse_20" data-name="Elipse 20" cx="6.767" cy="4.707" rx="6.767" ry="4.707" transform="matrix(0.008, -1, 1, 0.008, 513.749, 78.747)" fill="#e6e6e6"/>
    <ellipse id="Elipse_21" data-name="Elipse 21" cx="6.767" cy="4.707" rx="6.767" ry="4.707" transform="matrix(0.008, -1, 1, 0.008, 503.483, 35.712)" fill="#3f3d56"/>
    <ellipse id="Elipse_22" data-name="Elipse 22" cx="6.767" cy="4.707" rx="6.767" ry="4.707" transform="matrix(0.008, -1, 1, 0.008, 583.32, 111.45)" fill="#e6e6e6"/>
    <ellipse id="Elipse_23" data-name="Elipse 23" cx="6.767" cy="4.707" rx="6.767" ry="4.707" transform="matrix(0.008, -1, 1, 0.008, 549.651, 128.261)" fill="#00a884"/>
    <ellipse id="Elipse_24" data-name="Elipse 24" cx="6.767" cy="4.707" rx="6.767" ry="4.707" transform="matrix(0.008, -1, 1, 0.008, 596.518, 159.33)" fill="#3f3d56"/>
    <ellipse id="Elipse_25" data-name="Elipse 25" cx="1.417" cy="3.542" rx="1.417" ry="3.542" transform="translate(761.559 187.439) rotate(-35.559)" fill="#3f3d56"/>
    <ellipse id="Elipse_26" data-name="Elipse 26" cx="1.417" cy="3.542" rx="1.417" ry="3.542" transform="translate(757.308 181.771) rotate(-35.559)" fill="#3f3d56"/>
  </g>
</svg>
