<svg width="500" height="368" viewBox="0 0 500 368" fill="none" xmlns="http://www.w3.org/2000/svg">
<g clip-path="url(#clip0_10_99)">
<rect width="500" height="26" fill="white"/>
<path d="M309.468 295.869H15.7468C12.5124 295.865 9.4116 294.578 7.12458 292.291C4.83756 290.003 3.55109 286.901 3.54742 283.666V72.879C3.55109 69.6438 4.83756 66.542 7.12458 64.2544C9.4116 61.9667 12.5124 60.6799 15.7468 60.6762H309.468C312.702 60.6799 315.803 61.9667 318.09 64.2544C320.377 66.542 321.663 69.6438 321.667 72.879V283.666C321.663 286.901 320.377 290.003 318.09 292.291C315.803 294.578 312.702 295.865 309.468 295.869ZM15.7468 67.0987C14.2147 67.1005 12.7459 67.7101 11.6626 68.7937C10.5793 69.8773 9.96991 71.3465 9.96813 72.879V283.666C9.96986 285.199 10.5792 286.668 11.6626 287.752C12.7459 288.835 14.2147 289.445 15.7468 289.446H309.468C311 289.445 312.469 288.835 313.552 287.752C314.635 286.668 315.245 285.199 315.246 283.666V72.879C315.245 71.3465 314.635 69.8773 313.552 68.7937C312.469 67.7101 311 67.1005 309.468 67.0987H15.7468Z" fill="#E6E6E6"/>
<path d="M156.365 368C169.416 368 179.997 357.417 179.997 344.361C179.997 331.306 169.416 320.722 156.365 320.722C143.313 320.722 132.733 331.306 132.733 344.361C132.733 357.417 143.313 368 156.365 368Z" fill="#E6E6E6"/>
<path d="M156.365 362.484C166.371 362.484 174.483 354.37 174.483 344.361C174.483 334.352 166.371 326.238 156.365 326.238C146.359 326.238 138.247 334.352 138.247 344.361C138.247 354.37 146.359 362.484 156.365 362.484Z" fill="white"/>
<path d="M165.441 354.259C165.333 354.26 165.226 354.238 165.125 354.197C165.025 354.155 164.934 354.094 164.858 354.017L146.703 335.857C146.555 335.701 146.473 335.493 146.476 335.278C146.479 335.063 146.566 334.857 146.718 334.705C146.87 334.553 147.075 334.466 147.291 334.463C147.506 334.461 147.713 334.542 147.869 334.69L166.025 352.85C166.14 352.966 166.219 353.113 166.25 353.273C166.282 353.433 166.266 353.599 166.203 353.75C166.141 353.9 166.035 354.029 165.9 354.12C165.764 354.211 165.604 354.259 165.441 354.259Z" fill="#00A884"/>
<path d="M166.611 346.108C166.782 345.84 166.873 345.528 166.872 345.211C166.871 344.893 166.779 344.582 166.606 344.315C165.283 342.245 163.538 340.478 161.486 339.128C159.407 337.745 156.972 336.991 154.474 336.958C153.215 336.959 151.964 337.165 150.77 337.566C150.737 337.577 150.707 337.596 150.683 337.622C150.659 337.648 150.642 337.68 150.634 337.714C150.626 337.749 150.627 337.785 150.637 337.818C150.646 337.852 150.665 337.883 150.69 337.908L153.126 340.345C153.152 340.37 153.183 340.389 153.218 340.398C153.253 340.408 153.289 340.408 153.324 340.399C154.6 340.088 155.947 340.297 157.069 340.98C158.19 341.662 158.995 342.763 159.306 344.039L159.312 344.063C159.733 346.036 160.694 347.854 162.089 349.312L162.865 350.089C162.902 350.125 162.951 350.147 163.002 350.149C163.054 350.151 163.104 350.134 163.144 350.101C164.493 348.951 165.662 347.605 166.611 346.108Z" fill="#00A884"/>
<path d="M158.159 348.187C157.508 348.187 156.864 348.059 156.264 347.81C155.663 347.561 155.117 347.196 154.657 346.737C154.197 346.277 153.833 345.731 153.584 345.13C153.335 344.529 153.207 343.885 153.207 343.234C153.207 343.23 153.207 343.226 153.207 343.221C153.218 342.789 153.142 342.358 152.986 341.955C152.829 341.551 152.594 341.183 152.294 340.871L149.845 338.42C149.808 338.383 149.759 338.362 149.707 338.36C149.655 338.358 149.604 338.376 149.564 338.409C148.24 339.558 147.068 340.87 146.075 342.315C145.889 342.583 145.786 342.9 145.78 343.226C145.774 343.553 145.866 343.874 146.042 344.148C147.344 346.22 149.072 347.99 151.111 349.341C153.194 350.73 155.639 351.477 158.142 351.489C159.414 351.485 160.678 351.284 161.889 350.893C161.922 350.882 161.953 350.863 161.977 350.837C162.001 350.811 162.018 350.779 162.026 350.745C162.035 350.711 162.034 350.675 162.024 350.641C162.015 350.606 161.997 350.575 161.972 350.55L159.523 348.102C159.498 348.077 159.466 348.058 159.432 348.049C159.397 348.039 159.361 348.039 159.326 348.048C158.944 348.14 158.552 348.187 158.159 348.187Z" fill="#00A884"/>
<path d="M66.7017 368C79.7534 368 90.3338 357.417 90.3338 344.361C90.3338 331.306 79.7534 320.722 66.7017 320.722C53.65 320.722 43.0695 331.306 43.0695 344.361C43.0695 357.417 53.65 368 66.7017 368Z" fill="#E6E6E6"/>
<path d="M66.7017 362.484C76.708 362.484 84.8197 354.37 84.8197 344.361C84.8197 334.352 76.708 326.238 66.7017 326.238C56.6954 326.238 48.5837 334.352 48.5837 344.361C48.5837 354.37 56.6954 362.484 66.7017 362.484Z" fill="white"/>
<path d="M73.6619 355.917C72.6551 355.917 71.2409 355.553 69.1231 354.37C66.491 352.963 64.0875 351.164 61.9946 349.036C59.8284 346.972 58.0194 344.563 56.6413 341.908C54.7412 338.451 55.0651 336.639 55.4272 335.865C55.8452 335.018 56.5025 334.313 57.3175 333.836C57.7848 333.53 58.2793 333.267 58.7947 333.052C58.8463 333.03 58.8943 333.008 58.9371 332.989C59.1077 332.893 59.2968 332.834 59.492 332.816C59.6872 332.798 59.884 332.822 60.0692 332.886C60.4809 333.084 60.8471 333.365 61.1451 333.712C62.2178 334.916 63.1228 336.26 63.8354 337.706C64.1283 338.207 64.3084 338.765 64.363 339.342C64.3203 339.914 64.089 340.455 63.7054 340.88C63.6379 340.973 63.5708 341.061 63.5058 341.147C63.1133 341.663 63.0272 341.812 63.0839 342.078C63.199 342.613 64.9419 343.078 66.3515 344.485C67.7611 345.892 68.4222 347.823 68.9591 347.938C69.2366 347.997 69.3888 347.907 69.921 347.501C69.9974 347.442 70.0758 347.382 70.1578 347.322C70.5844 346.919 71.1344 346.673 71.7185 346.623H71.7216C72.3071 346.683 72.8701 346.881 73.3649 347.2C74.7948 347.925 76.1309 348.822 77.3435 349.871C77.6904 350.168 77.9723 350.534 78.1713 350.945C78.2352 351.131 78.259 351.328 78.2412 351.524C78.2234 351.719 78.1645 351.909 78.0682 352.08C78.0491 352.123 78.0279 352.17 78.0058 352.222C77.7887 352.737 77.5247 353.23 77.2171 353.696C76.7393 354.511 76.0331 355.167 75.186 355.584C74.7098 355.809 74.1887 355.923 73.6619 355.917Z" fill="#00A884"/>
<path d="M246.723 368C259.775 368 270.355 357.417 270.355 344.361C270.355 331.306 259.775 320.722 246.723 320.722C233.671 320.722 223.091 331.306 223.091 344.361C223.091 357.417 233.671 368 246.723 368Z" fill="#E6E6E6"/>
<path d="M246.723 362.484C256.729 362.484 264.841 354.37 264.841 344.361C264.841 334.352 256.729 326.238 246.723 326.238C236.717 326.238 228.605 334.352 228.605 344.361C228.605 354.37 236.717 362.484 246.723 362.484Z" fill="white"/>
<path d="M253.325 340.977C253.106 340.977 252.896 341.064 252.741 341.219C252.587 341.373 252.5 341.583 252.5 341.802V343.453C252.5 346.644 249.913 347.581 246.723 347.581C243.533 347.581 240.946 346.644 240.946 343.453V341.802C240.946 341.583 240.859 341.373 240.705 341.219C240.55 341.064 240.34 340.977 240.121 340.977C239.902 340.977 239.692 341.064 239.538 341.219C239.383 341.373 239.296 341.583 239.296 341.802V343.453C239.298 345.28 239.973 347.041 241.19 348.402C242.408 349.763 244.083 350.629 245.898 350.833V354.184C245.898 354.403 245.985 354.613 246.139 354.768C246.294 354.923 246.504 355.01 246.723 355.01C246.942 355.01 247.152 354.923 247.307 354.768C247.461 354.613 247.548 354.403 247.548 354.184V350.833C249.363 350.629 251.038 349.763 252.256 348.402C253.473 347.041 254.148 345.28 254.15 343.453V341.802C254.15 341.583 254.063 341.373 253.908 341.219C253.754 341.064 253.544 340.977 253.325 340.977Z" fill="#00A884"/>
<path d="M246.723 345.245C245.711 345.265 244.709 345.035 243.806 344.578C243.482 344.449 243.198 344.234 242.985 343.957C242.772 343.68 242.638 343.35 242.597 343.003V339.931C242.588 338.713 244.421 337.721 246.691 337.717C246.702 337.717 246.712 337.717 246.723 337.717C248.977 337.704 250.825 338.674 250.849 339.883C250.849 339.899 250.849 339.915 250.849 339.931V343.003C250.861 344.233 249.015 345.236 246.723 345.245Z" fill="#00A884"/>
<path d="M309.468 292.979H15.7467C13.2784 292.976 10.9121 291.994 9.1667 290.248C7.42135 288.502 6.43957 286.135 6.43674 283.666V72.879C6.43957 70.41 7.42135 68.0429 9.1667 66.2971C10.9121 64.5512 13.2784 63.5692 15.7467 63.5663H309.468C311.936 63.5692 314.302 64.5512 316.048 66.2971C317.793 68.0429 318.775 70.41 318.778 72.879V283.666C318.775 286.135 317.793 288.502 316.048 290.248C314.302 291.994 311.936 292.976 309.468 292.979Z" fill="white"/>
<path d="M161.169 194.198C178.34 194.198 192.259 180.275 192.259 163.099C192.259 145.924 178.34 132.001 161.169 132.001C143.999 132.001 130.08 145.924 130.08 163.099C130.08 180.275 143.999 194.198 161.169 194.198Z" fill="#FFB8B8"/>
<path d="M126.488 133.182C126.723 129.611 129.084 125.957 136.585 124.047C136.585 124.047 149.459 107.581 166.953 116.216C166.953 116.216 175.434 114.756 181.723 123.558C181.723 123.558 187.958 119.88 190.588 126.4C190.588 126.4 197.901 139.699 195.209 153.264C192.516 166.828 191.138 168.521 191.138 168.521C191.138 168.521 194.57 140.463 174.805 142.408C155.04 144.354 139.127 137.401 134.651 152.624C130.935 165.264 131.403 171.829 131.403 171.829C131.403 171.829 118.974 159.219 123.2 149.29C125.361 144.211 126.126 138.69 126.488 133.182Z" fill="#2F2E41"/>
<path d="M76.6245 292.657H248.59C247.441 279.536 246.689 269.774 246.689 266.473C246.689 251.913 234.779 236.024 234.779 236.024L230.516 233.667L194.913 222.556L185.699 210.584C184.734 209.327 183.491 208.311 182.067 207.615C180.644 206.92 179.078 206.564 177.494 206.576L148.389 206.795C145.827 206.815 143.366 207.79 141.486 209.531L123.463 226.255L97.0294 238.882L96.9845 238.837L96.7084 239.042L92.7854 241.868L90.262 243.692C90.262 243.692 83.6423 251.637 78.3516 275.464C77.5555 279.048 76.9969 285.047 76.6245 292.657Z" fill="#00A884"/>
<path d="M499.276 26.6373H0.723598C0.530213 26.633 0.346177 26.5532 0.210904 26.4149C0.0756313 26.2766 -0.00012207 26.0908 -0.00012207 25.8973C-0.00012207 25.7039 0.0756313 25.5181 0.210904 25.3798C0.346177 25.2415 0.530213 25.1616 0.723598 25.1574H499.276C499.47 25.1616 499.654 25.2415 499.789 25.3798C499.924 25.5181 500 25.7039 500 25.8973C500 26.0908 499.924 26.2766 499.789 26.4149C499.654 26.5532 499.47 26.633 499.276 26.6373Z" fill="#CACACA"/>
<path d="M17.01 21.2783C21.4059 21.2783 24.9695 17.6343 24.9695 13.1392C24.9695 8.64403 21.4059 5 17.01 5C12.6141 5 9.05054 8.64403 9.05054 13.1392C9.05054 17.6343 12.6141 21.2783 17.01 21.2783Z" fill="#3F3D56"/>
<path d="M44.5065 21.2783C48.9024 21.2783 52.466 17.6343 52.466 13.1392C52.466 8.64403 48.9024 5 44.5065 5C40.1106 5 36.547 8.64403 36.547 13.1392C36.547 17.6343 40.1106 21.2783 44.5065 21.2783Z" fill="#3F3D56"/>
<path d="M72.0028 21.2783C76.3987 21.2783 79.9623 17.6343 79.9623 13.1392C79.9623 8.64403 76.3987 5 72.0028 5C67.6069 5 64.0433 8.64403 64.0433 13.1392C64.0433 17.6343 67.6069 21.2783 72.0028 21.2783Z" fill="#3F3D56"/>
<path d="M482.802 7.9597H463.265C462.878 7.9512 462.51 7.79155 462.24 7.51495C461.969 7.23835 461.818 6.86679 461.818 6.47984C461.818 6.0929 461.969 5.72134 462.24 5.44474C462.51 5.16814 462.878 5.0085 463.265 5H482.802C483.189 5.0085 483.557 5.16814 483.827 5.44474C484.098 5.72134 484.249 6.0929 484.249 6.47984C484.249 6.86679 484.098 7.23835 483.827 7.51495C483.557 7.79155 483.189 7.9512 482.802 7.9597Z" fill="#3F3D56"/>
<path d="M482.802 13.5091H463.265C462.878 13.5006 462.51 13.341 462.24 13.0644C461.969 12.7878 461.818 12.4162 461.818 12.0293C461.818 11.6423 461.969 11.2708 462.24 10.9942C462.51 10.7176 462.878 10.5579 463.265 10.5494H482.802C483.189 10.5579 483.557 10.7176 483.827 10.9942C484.098 11.2708 484.249 11.6423 484.249 12.0293C484.249 12.4162 484.098 12.7878 483.827 13.0644C483.557 13.341 483.189 13.5006 482.802 13.5091Z" fill="#3F3D56"/>
<path d="M482.802 19.0586H463.265C462.878 19.0501 462.51 18.8904 462.24 18.6138C461.969 18.3372 461.818 17.9657 461.818 17.5787C461.818 17.1918 461.969 16.8202 462.24 16.5436C462.51 16.267 462.878 16.1074 463.265 16.0989H482.802C483.189 16.1074 483.557 16.267 483.827 16.5436C484.098 16.8202 484.249 17.1918 484.249 17.5787C484.249 17.9657 484.098 18.3372 483.827 18.6138C483.557 18.8904 483.189 19.0501 482.802 19.0586Z" fill="#3F3D56"/>
<path d="M469.181 306.314H371.165C367.93 306.31 364.829 305.024 362.542 302.736C360.255 300.448 358.969 297.346 358.965 294.111V226.96C358.969 223.725 360.255 220.623 362.542 218.335C364.829 216.048 367.93 214.761 371.165 214.757H469.181C472.415 214.761 475.516 216.048 477.803 218.335C480.09 220.623 481.376 223.725 481.38 226.96V294.111C481.376 297.346 480.09 300.448 477.803 302.736C475.516 305.024 472.415 306.31 469.181 306.314ZM371.165 221.18C369.633 221.181 368.164 221.791 367.08 222.875C365.997 223.958 365.388 225.427 365.386 226.96V294.111C365.388 295.644 365.997 297.113 367.08 298.197C368.164 299.28 369.633 299.89 371.165 299.892H469.181C470.713 299.89 472.182 299.28 473.265 298.197C474.348 297.113 474.958 295.644 474.959 294.111V226.96C474.958 225.427 474.348 223.958 473.265 222.875C472.182 221.791 470.713 221.181 469.181 221.18H371.165Z" fill="#E6E6E6"/>
<path d="M469.181 303.424H371.165C368.696 303.421 366.33 302.439 364.584 300.693C362.839 298.947 361.857 296.58 361.854 294.111V226.96C361.857 224.491 362.839 222.124 364.584 220.378C366.33 218.632 368.696 217.65 371.165 217.647H469.181C471.649 217.65 474.015 218.632 475.761 220.378C477.506 222.124 478.488 224.491 478.491 226.96V294.111C478.488 296.58 477.506 298.947 475.761 300.693C474.015 302.439 471.649 303.421 469.181 303.424Z" fill="white"/>
<path d="M429.364 239.506C429.931 235.97 428.327 233.367 424.076 231.897C419.848 228.227 413.598 227.347 409.847 233.225C408.332 233.135 406.842 233.633 405.686 234.616C404.53 235.598 403.798 236.99 403.642 238.499C400.197 242.505 404.022 257.209 405.156 262.811L411.204 262.751L423.278 262.632L429.364 262.572L431.683 249.435C433.093 245.616 432.519 242.266 429.364 239.506Z" fill="#E6E6E6"/>
<path d="M451.327 294.813C452.907 293.804 454.58 292.95 456.324 292.262L439.126 271.837L427.76 268.927C427.667 268.875 427.575 268.821 427.484 268.766L408.311 269.502L408.229 269.42L396.14 275.335L378.942 295.223C380.639 295.889 382.27 296.713 383.812 297.685L382.037 304.436H394.342L397.616 299.677H397.78C397.78 299.595 397.788 299.513 397.788 299.431L400.085 296.089C400.137 298.789 400.062 301.572 399.876 304.436H438.149C438.089 302.057 438.075 299.692 438.075 297.342L442.355 303.556C442.676 303.086 443.019 302.646 443.362 302.198L444.205 304.436H454.004L451.655 295.499C451.589 295.253 451.477 295.02 451.327 294.813Z" fill="#E6E6E6"/>
<path d="M469.181 151.557H371.165C367.93 151.554 364.829 150.267 362.542 147.979C360.255 145.691 358.969 142.59 358.965 139.355V72.2032C358.969 68.9679 360.255 65.8662 362.542 63.5785C364.829 61.2909 367.93 60.004 371.165 60.0004H469.181C472.415 60.004 475.516 61.2909 477.803 63.5785C480.09 65.8662 481.376 68.9679 481.38 72.2032V139.355C481.376 142.59 480.09 145.691 477.803 147.979C475.516 150.267 472.415 151.554 469.181 151.557ZM371.165 66.4229C369.633 66.4247 368.164 67.0342 367.08 68.1179C365.997 69.2015 365.388 70.6707 365.386 72.2032V139.355C365.388 140.887 365.997 142.356 367.08 143.44C368.164 144.523 369.633 145.133 371.165 145.135H469.181C470.713 145.133 472.182 144.523 473.265 143.44C474.348 142.356 474.958 140.887 474.959 139.355V72.2032C474.958 70.6707 474.348 69.2015 473.265 68.1179C472.182 67.0342 470.713 66.4247 469.181 66.4229H371.165Z" fill="#E6E6E6"/>
<path d="M469.181 148.667H371.165C368.696 148.664 366.33 147.682 364.584 145.936C362.839 144.191 361.857 141.824 361.855 139.355V72.2031C361.857 69.7341 362.839 67.3671 364.584 65.6212C366.33 63.8754 368.696 62.8933 371.165 62.8905H469.181C471.649 62.8933 474.015 63.8754 475.761 65.6212C477.506 67.3671 478.488 69.7341 478.491 72.2031V139.355C478.488 141.824 477.506 144.191 475.761 145.936C474.015 147.682 471.649 148.664 469.181 148.667Z" fill="white"/>
<path d="M407.793 96C408.086 98.9851 409.41 101.775 411.538 103.889C413.665 106.003 416.462 107.31 419.448 107.584C422.434 107.859 425.422 107.084 427.899 105.393C430.376 103.702 432.187 101.201 433.019 98.3198C433.437 97.8845 438.066 92.9363 436.391 88.9996C435.563 86.8639 435.102 84.6038 435.026 82.3145C434.929 80.8323 433.949 79.3156 430.835 78.523C430.835 78.523 425.492 71.6887 418.232 75.2727C418.232 75.2727 414.712 74.6669 412.102 78.32C412.102 78.32 409.514 76.7934 408.422 79.4993C408.422 79.4993 405.387 85.0189 406.504 90.6489C406.832 92.4556 407.262 94.2421 407.793 96Z" fill="#E6E6E6"/>
<path d="M455.005 142.702C452.809 132.812 450.061 129.515 450.061 129.515L449.014 128.758L447.386 127.585L447.271 127.5L447.253 127.519L436.281 122.278L428.801 115.337C428.021 114.614 427 114.209 425.937 114.201L413.857 114.111C413.199 114.105 412.549 114.253 411.958 114.542C411.368 114.83 410.852 115.252 410.451 115.774L406.627 120.743L391.851 125.354L390.081 126.332C390.081 126.332 385.138 132.927 385.138 138.97C385.138 140.34 384.826 144.392 384.349 149.838H455.721C455.658 147.445 455.419 145.059 455.005 142.702Z" fill="#E6E6E6"/>
<path d="M407.999 242.243H279.853C275.624 242.238 271.57 240.555 268.58 237.564C265.59 234.574 263.908 230.518 263.903 226.289V138.495C263.908 134.265 265.59 130.21 268.58 127.219C271.57 124.228 275.624 122.546 279.853 122.541H407.999C412.227 122.546 416.281 124.228 419.272 127.219C422.262 130.21 423.943 134.265 423.948 138.495V226.289C423.943 230.518 422.262 234.574 419.272 237.564C416.281 240.555 412.227 242.238 407.999 242.243ZM279.853 130.938C277.85 130.94 275.929 131.737 274.513 133.154C273.097 134.571 272.3 136.491 272.298 138.495V226.289C272.3 228.292 273.097 230.213 274.513 231.63C275.929 233.047 277.85 233.843 279.853 233.846H407.999C410.002 233.844 411.922 233.047 413.339 231.63C414.755 230.213 415.552 228.292 415.554 226.289V138.495C415.552 136.491 414.755 134.571 413.339 133.154C411.922 131.737 410.002 130.94 407.999 130.938H279.853Z" fill="#E6E6E6"/>
<path d="M407.997 126.319H279.853C276.625 126.323 273.531 127.608 271.249 129.891C268.966 132.174 267.682 135.269 267.678 138.498V226.291C267.682 229.519 268.967 232.614 271.249 234.896C273.532 237.178 276.626 238.461 279.853 238.464H407.997C411.224 238.461 414.319 237.178 416.601 234.896C418.884 232.614 420.168 229.519 420.173 226.291V138.498C420.168 135.269 418.884 132.174 416.602 129.891C414.319 127.608 411.225 126.323 407.997 126.319Z" fill="white"/>
<path d="M366.469 163.021C371.996 163.021 376.476 158.539 376.476 153.011C376.476 147.483 371.996 143.001 366.469 143.001C360.942 143.001 356.462 147.483 356.462 153.011C356.462 158.539 360.942 163.021 366.469 163.021Z" fill="#2F2E41"/>
<path d="M345.911 197.036C359.912 197.036 371.262 185.683 371.262 171.677C371.262 157.672 359.912 146.319 345.911 146.319C331.91 146.319 320.56 157.672 320.56 171.677C320.56 185.683 331.91 197.036 345.911 197.036Z" fill="#2F2E41"/>
<path d="M341.506 198.578C352.884 198.578 362.107 189.352 362.107 177.971C362.107 166.591 352.884 157.365 341.506 157.365C330.129 157.365 320.905 166.591 320.905 177.971C320.905 189.352 330.129 198.578 341.506 198.578Z" fill="#9E616A"/>
<path d="M333.74 152.309C337.742 150.945 342.037 150.681 346.175 151.546C350.314 152.41 354.144 154.371 357.266 157.223C360.387 160.075 362.686 163.714 363.92 167.759C365.155 171.803 365.281 176.106 364.284 180.216C353.465 180.507 342.262 180.079 332.209 173.719L331.035 166.827L328.106 172.81C324.476 173.429 320.884 173.837 318.109 170.57C318.889 166.424 320.743 162.555 323.486 159.351C326.229 156.146 329.765 153.718 333.74 152.309Z" fill="#2F2E41"/>
<path d="M381.467 128.512C388.911 126.919 397.062 130.26 401.605 136.37C406.148 142.48 407.062 150.981 404.34 158.093C401.563 165.347 395.566 170.791 389.96 176.166C384.353 181.541 378.708 187.542 377.025 195.126C375.813 200.588 376.816 206.308 379.814 211.032C382.812 215.755 387.56 219.097 393.017 220.323C385.995 221.656 378.681 222.98 371.785 221.101C364.888 219.222 358.582 213.114 358.977 205.975C359.262 200.832 362.772 196.536 365.826 192.388C370.8 185.628 374.94 178.292 378.157 170.54C379.692 166.84 381.035 162.89 380.604 158.907C380.215 155.941 378.883 153.177 376.805 151.025C374.727 148.873 372.013 147.445 369.063 146.953L367.221 144.368C367.835 136.778 374.023 130.106 381.467 128.512Z" fill="#2F2E41"/>
<path d="M388.77 237.896C387.436 224.296 379.897 224.83 379.897 224.83L359.99 220.94L351.27 206.458L329.381 205.604L321.589 219.271L305.578 221.273L305.565 221.5C303.977 221.62 298.253 222.875 297.105 234.56C296.998 235.634 296.852 236.949 296.665 238.464H388.83C388.81 238.263 388.79 238.076 388.77 237.896Z" fill="#2F2E41"/>
</g>
<defs>
<clipPath id="clip0_10_99">
<rect width="500" height="368" fill="white"/>
</clipPath>
</defs>
</svg>
