<svg xmlns="http://www.w3.org/2000/svg" width="1161.299" height="656.959" viewBox="0 0 1161.299 656.959">
  <g id="Grupo_4" data-name="Grupo 4">
    <path id="Trazado_91" data-name="Trazado 91" d="M1098.135,508.258H347.858A41.106,41.106,0,0,1,306.8,467.2V227.06A41.106,41.106,0,0,1,347.858,186h750.277a41.106,41.106,0,0,1,41.06,41.06V467.2A41.106,41.106,0,0,1,1098.135,508.258Z" transform="translate(-90.907 -186)" fill="#e6e6e6"/>
    <path id="Trazado_92" data-name="Trazado 92" d="M345.683,199A24.913,24.913,0,0,0,320.8,223.885V464.023a24.913,24.913,0,0,0,24.885,24.885H1095.96a24.913,24.913,0,0,0,24.885-24.885V223.885A24.913,24.913,0,0,0,1095.96,199Z" transform="translate(-87.488 -182.825)" fill="#fff"/>
    <path id="Trazado_93" data-name="Trazado 93" d="M421.791,290.44a27.257,27.257,0,1,1,27.258-27.257h0a27.288,27.288,0,0,1-27.258,27.258Zm0-50.88a23.623,23.623,0,1,0,23.623,23.623h0a23.65,23.65,0,0,0-23.623-23.623Z" transform="translate(-69.478 -173.806)" fill="#ccc"/>
    <path id="Trazado_94" data-name="Trazado 94" d="M416.615,253.27h-.051l-2.877,1.553-.432-1.705,3.614-1.934h1.909v16.546h-2.164Z" transform="translate(-64.906 -170.08)" fill="#ccc"/>
    <path id="Trazado_101" data-name="Trazado 101" d="M557.483,287.44a27.257,27.257,0,1,1,27.257-27.257A27.257,27.257,0,0,1,557.483,287.44Zm0-50.88a23.623,23.623,0,1,0,23.623,23.623h0a23.65,23.65,0,0,0-23.623-23.623Z" transform="translate(-36.337 -174.539)" fill="#ccc"/>
    <path id="Trazado_102" data-name="Trazado 102" d="M548.258,264.9v-1.375l1.755-1.705c4.227-4.021,6.136-6.161,6.161-8.655a2.95,2.95,0,0,0-3.283-3.231,5.638,5.638,0,0,0-3.514,1.4l-.713-1.578a7.266,7.266,0,0,1,4.685-1.681,4.656,4.656,0,0,1,5.065,4.811c0,3.054-2.215,5.524-5.7,8.883l-1.324,1.223v.05h7.434v1.86Z" transform="translate(-31.933 -170.843)" fill="#ccc"/>
    <path id="Trazado_103" data-name="Trazado 103" d="M640.663,415.214H496.331a11.211,11.211,0,0,1-11.2-11.2V318.163a11.211,11.211,0,0,1,11.2-11.2H640.663a11.211,11.211,0,0,1,11.2,11.2v85.853A11.211,11.211,0,0,1,640.663,415.214Z" transform="translate(-47.351 -156.456)" fill="#fff"/>
    <path id="Trazado_104" data-name="Trazado 104" d="M611.184,326.351H513.058a1.817,1.817,0,0,1,0-3.634h98.13a1.817,1.817,0,0,1,0,3.634Z" transform="translate(-40.974 -152.608)" fill="#e6e6e6"/>
    <path id="Trazado_105" data-name="Trazado 105" d="M611.184,339.5H513.058a1.817,1.817,0,0,1,0-3.634h98.13a1.817,1.817,0,0,1,0,3.634Z" transform="translate(-40.974 -149.398)" fill="#e6e6e6"/>
    <path id="Trazado_106" data-name="Trazado 106" d="M611.184,352.639H513.058a1.817,1.817,0,0,1,0-3.634h98.13a1.817,1.817,0,0,1,0,3.634Z" transform="translate(-40.974 -146.188)" fill="#e6e6e6"/>
    <path id="Trazado_107" data-name="Trazado 107" d="M611.184,365.783H513.058a1.817,1.817,0,0,1,0-3.634h98.13a1.817,1.817,0,0,1,0,3.634Z" transform="translate(-40.974 -142.977)" fill="#e6e6e6"/>
    <path id="Trazado_108" data-name="Trazado 108" d="M611.183,378.927H513.058a1.817,1.817,0,0,1,0-3.634h98.126a1.817,1.817,0,0,1,0,3.634Z" transform="translate(-40.974 -139.767)" fill="#e6e6e6"/>
    <path id="Trazado_109" data-name="Trazado 109" d="M640.663,415.214H496.331a11.211,11.211,0,0,1-11.2-11.2V318.163a11.211,11.211,0,0,1,11.2-11.2H640.663a11.211,11.211,0,0,1,11.2,11.2v85.853A11.211,11.211,0,0,1,640.663,415.214ZM496.331,309.453a8.719,8.719,0,0,0-8.71,8.71v85.853a8.719,8.719,0,0,0,8.71,8.71H640.663a8.719,8.719,0,0,0,8.71-8.71V318.163a8.719,8.719,0,0,0-8.71-8.71Z" transform="translate(-47.351 -156.456)" fill="#e6e6e6"/>
    <path id="Trazado_110" data-name="Trazado 110" d="M704.256,287.44a27.257,27.257,0,1,1,27.257-27.257A27.257,27.257,0,0,1,704.256,287.44Zm0-50.88a23.623,23.623,0,1,0,23.623,23.623h0a23.65,23.65,0,0,0-23.623-23.623Z" transform="translate(-0.489 -174.539)" fill="#ccc"/>
    <path id="Trazado_111" data-name="Trazado 111" d="M695.363,262.212a7.5,7.5,0,0,0,3.665,1.043c2.878,0,3.769-1.833,3.742-3.207-.025-2.318-2.113-3.31-4.275-3.31h-1.249v-1.681h1.249c1.629,0,3.691-.839,3.691-2.8,0-1.324-.841-2.5-2.9-2.5a6.053,6.053,0,0,0-3.308,1.1l-.586-1.629a7.853,7.853,0,0,1,4.326-1.274c3.258,0,4.735,1.934,4.735,3.947a4.109,4.109,0,0,1-3.056,3.893v.051a4.308,4.308,0,0,1,3.691,4.25c0,2.648-2.062,4.965-6.032,4.965a8.394,8.394,0,0,1-4.3-1.122Z" transform="translate(3.847 -170.868)" fill="#ccc"/>
    <path id="Trazado_112" data-name="Trazado 112" d="M667.141,375.948a3.2,3.2,0,1,0-3.087-3.087,3.2,3.2,0,0,0,3.087,3.087Z" transform="translate(-3.651 -141.17)" fill="#e6e6e6"/>
    <path id="Trazado_113" data-name="Trazado 113" d="M739.139,374.3H680.991a1.817,1.817,0,1,1,0-3.634h58.149a1.817,1.817,0,0,1,0,3.634h0Z" transform="translate(0.042 -140.898)" fill="#e6e6e6"/>
    <path id="Trazado_114" data-name="Trazado 114" d="M761.642,365.444H659.615a8.72,8.72,0,0,1-8.71-8.71v-41.06a8.719,8.719,0,0,1,8.71-8.71H761.642a8.72,8.72,0,0,1,8.71,8.71v41.06a8.72,8.72,0,0,1-8.71,8.71ZM659.615,309.453a6.228,6.228,0,0,0-6.221,6.221v41.06a6.228,6.228,0,0,0,6.221,6.221H761.642a6.228,6.228,0,0,0,6.221-6.221v-41.06a6.228,6.228,0,0,0-6.221-6.221Z" transform="translate(-6.862 -156.456)" fill="#e6e6e6"/>
    <rect id="Rect치ngulo_19" data-name="Rect치ngulo 19" width="124.121" height="2.488" transform="translate(646.752 204.209) rotate(-24.262)" fill="#e6e6e6"/>
    <rect id="Rect치ngulo_20" data-name="Rect치ngulo 20" width="2.488" height="123.813" transform="translate(647.215 154.838) rotate(-65.351)" fill="#e6e6e6"/>
    <path id="Trazado_115" data-name="Trazado 115" d="M817.925,334.673a1.752,1.752,0,0,0-.265-.4h0l-13.629-13.628a1.817,1.817,0,1,0-2.57,2.57l10.527,10.527H765.5a1.817,1.817,0,0,0,0,3.634h46.493l-9.618,9.618a1.817,1.817,0,0,0,2.57,2.57l12.719-12.719h0a1.792,1.792,0,0,0,.265-2.171Z" transform="translate(20.681 -153.244)" fill="#ccc"/>
    <path id="Trazado_116" data-name="Trazado 116" d="M915.714,310.339h-.852v-23.33a13.5,13.5,0,0,0-13.5-13.5H851.933a13.5,13.5,0,0,0-13.5,13.5V415a13.5,13.5,0,0,0,13.5,13.5H901.36a13.5,13.5,0,0,0,13.5-13.5V326.946h.852Z" transform="translate(-523.199 -144.526)" fill="#3f3d56"/>
    <path id="Trazado_117" data-name="Trazado 117" d="M911.257,286.414v127.8A10.084,10.084,0,0,1,901.173,424.3H851.509a10.084,10.084,0,0,1-10.084-10.084v-127.8a10.084,10.084,0,0,1,10.084-10.084h6.025a4.793,4.793,0,0,0,4.436,6.6h28.316a4.793,4.793,0,0,0,4.436-6.6h6.451a10.084,10.084,0,0,1,10.084,10.084Z" transform="translate(-522.467 -143.837)" fill="#09d261"/>
    <path id="Trazado_121" data-name="Trazado 121" d="M749.707,453.362a208.4,208.4,0,0,1,0-63.426,5.352,5.352,0,0,1,5.272-4.486H804.59a5.284,5.284,0,0,1,4.175,2.023,5.374,5.374,0,0,1,1,4.609,127.321,127.321,0,0,0,0,59.133,5.373,5.373,0,0,1-1,4.609,5.284,5.284,0,0,1-4.175,2.023H754.979A5.352,5.352,0,0,1,749.707,453.362Z" transform="translate(16.676 -137.286)" fill="#09d261"/>
    <path id="Trazado_122" data-name="Trazado 122" d="M787.642,413.113H761.608a3.737,3.737,0,0,1-3.733-3.733v-1.459a3.737,3.737,0,0,1,3.733-3.733h26.034a3.737,3.737,0,0,1,3.733,3.733v1.459A3.737,3.737,0,0,1,787.642,413.113Z" transform="translate(19.264 -132.71)" fill="#fff"/>
    <path id="Trazado_123" data-name="Trazado 123" d="M170.38,561.112a208.416,208.416,0,0,1,39.127-49.919,5.353,5.353,0,0,1,6.917-.279l39.046,30.6a5.284,5.284,0,0,1,2.038,4.168,5.374,5.374,0,0,1-2.053,4.247,127.32,127.32,0,0,0-36.479,46.54,5.373,5.373,0,0,1-3.634,3.008,5.284,5.284,0,0,1-4.534-.983l-39.046-30.6A5.353,5.353,0,0,1,170.38,561.112Z" transform="translate(-124.387 -106.92)" fill="#ccc"/>
    <path id="Trazado_124" data-name="Trazado 124" d="M218.06,551.828l-20.49-16.06a3.737,3.737,0,0,1-.635-5.24l.9-1.148a3.737,3.737,0,0,1,5.241-.635l20.49,16.061a3.737,3.737,0,0,1,.635,5.24l-.9,1.148a3.737,3.737,0,0,1-5.24.634Z" transform="translate(-117.934 -102.482)" fill="#fff"/>
    <path id="Trazado_125" data-name="Trazado 125" d="M210.444,561.544l-20.49-16.059a3.737,3.737,0,0,1-.635-5.24l.9-1.148a3.737,3.737,0,0,1,5.241-.635l20.491,16.059a3.737,3.737,0,0,1,.635,5.24l-.9,1.148a3.737,3.737,0,0,1-5.241.635Z" transform="translate(-119.794 -100.109)" fill="#fff"/>
    <path id="Trazado_126" data-name="Trazado 126" d="M1018.706,577.362a208.4,208.4,0,0,1,0-63.426,5.352,5.352,0,0,1,5.271-4.486h49.611a5.284,5.284,0,0,1,4.175,2.023,5.374,5.374,0,0,1,1,4.609,127.319,127.319,0,0,0,0,59.133,5.373,5.373,0,0,1-1,4.609,5.284,5.284,0,0,1-4.175,2.023h-49.607A5.352,5.352,0,0,1,1018.706,577.362Z" transform="translate(82.377 -107.001)" fill="#ccc"/>
    <path id="Trazado_127" data-name="Trazado 127" d="M1056.643,537.113h-26.034a3.737,3.737,0,0,1-3.733-3.733v-1.459a3.737,3.737,0,0,1,3.733-3.733h26.034a3.737,3.737,0,0,1,3.733,3.733v1.459a3.737,3.737,0,0,1-3.733,3.733Z" transform="translate(84.965 -102.424)" fill="#fff"/>
    <path id="Trazado_128" data-name="Trazado 128" d="M1035.035,529.82a13.286,13.286,0,0,0-5.083-17.284,11.669,11.669,0,0,0-1.808-.81l-1.021-45.178-18.046,13.288,3.736,40.865a13.186,13.186,0,0,0,6.075,14.455,11.556,11.556,0,0,0,16.146-5.335Z" transform="translate(80.618 -117.479)" fill="#a0616a"/>
    <path id="Trazado_129" data-name="Trazado 129" d="M1033.179,531.918l-12.935.78a5.5,5.5,0,0,1-5.6-4.912L1003.9,446.977l-17.357-49.292a17.082,17.082,0,0,1,.45-12.611,15.32,15.32,0,0,1,8.78-8.391c7.9-2.873,16.559,1.676,19.292,10.139l17.651,56.515,5.443,82.533a5.869,5.869,0,0,1-1.306,4.14,5.247,5.247,0,0,1-2.257,1.616A5.031,5.031,0,0,1,1033.179,531.918Z" transform="translate(74.872 -139.638)" fill="#3f3d56"/>
    <path id="Trazado_130" data-name="Trazado 130" d="M834.268,526.45H819.013l-7.256-58.838H834.27Z" transform="translate(198.374 114.209)" fill="#a0616a"/>
    <path id="Trazado_131" data-name="Trazado 131" d="M976,716.664l-49.185,0v-.622A19.144,19.144,0,0,1,945.963,696.9H976Z" transform="translate(60.527 -61.219)" fill="#2f2e41"/>
    <path id="Trazado_132" data-name="Trazado 132" d="M870.268,526.45H855.013l-7.256-58.838H870.27Z" transform="translate(207.167 114.209)" fill="#a0616a"/>
    <path id="Trazado_133" data-name="Trazado 133" d="M1012,716.664l-49.185,0v-.622A19.144,19.144,0,0,1,981.964,696.9h30.042Z" transform="translate(69.32 -61.219)" fill="#2f2e41"/>
    <path id="Trazado_134" data-name="Trazado 134" d="M1025.524,513.944l-3.646,216.117a4.977,4.977,0,0,1-5.427,4.873l-17.85-1.623a4.977,4.977,0,0,1-4.511-4.572l-10.45-134.807a1.244,1.244,0,0,0-2.484.049l-5.223,137.894a4.977,4.977,0,0,1-4.973,4.788H951.82a4.977,4.977,0,0,1-4.968-4.673l-13.4-219.29,79.631-19.908Z" transform="translate(62.147 -111.069)" fill="#2f2e41"/>
    <circle id="Elipse_27" data-name="Elipse 27" cx="30.56" cy="30.56" r="30.56" transform="translate(999.352 138.825)" fill="#a0616a"/>
    <path id="Trazado_135" data-name="Trazado 135" d="M932,554.2a5.561,5.561,0,0,1-1.7-3.938l-2.061-147.37a35.462,35.462,0,0,1,23.991-34.144c2.863-12.989,18.1-14.616,26.984-14.422a13.792,13.792,0,0,1,11.17,6.125L996.752,370l14.035,8.227a35.5,35.5,0,0,1,16.76,38.343l-2.161,9.829a225.88,225.88,0,0,0,2.112,105.337l4.348,16.578a5.6,5.6,0,0,1-5.845,7l-5.05-.389a5.591,5.591,0,0,1-5.142-5.024l-.835-8.357a.622.622,0,0,0-1.238,0l-.809,8.091a5.6,5.6,0,0,1-5.485,5.041l-71.458,1.1H935.9A5.563,5.563,0,0,1,932,554.2Z" transform="translate(60.873 -144.892)" fill="#3f3d56"/>
    <path id="Trazado_136" data-name="Trazado 136" d="M971.778,346.536c.125,4.32,3.125,6.819,6.807,9.082s7.986,3.244,12.2,4.19a3.731,3.731,0,0,0,5.481-3.266l3.868-14.711a93.131,93.131,0,0,0,2.978-14.355c.931-9.343-1.283-19.394-7.8-26.149s-17.831-9.155-25.646-3.95C960.391,285.533,918,311.7,928.457,319.939c1.86,1.465,4.7-.389,7.065-.569s5.007.236,6.507,2.068c1.96,2.394,1.106,5.961,1.914,8.947A8.354,8.354,0,0,0,954.5,335.8a28.723,28.723,0,0,0,5.474-3.519c1.811-1.206,4.1-2.1,6.139-1.337,2.688,1,3.642,4.293,3.885,7.151a66.235,66.235,0,0,0,1.781,8.445Z" transform="translate(60.525 -159.537)" fill="#2f2e41"/>
    <path id="Trazado_137" data-name="Trazado 137" d="M829.946,216.118l-4.977,60.968L798.84,340.542l38.571-62.212Z" transform="translate(195.219 52.785)" opacity="0.2"/>
    <path id="Trazado_138" data-name="Trazado 138" d="M931.332,532.968a12.512,12.512,0,0,0,.4-19.181l16.646-41.229-22.648,4.573L913.39,515.582a12.58,12.58,0,0,0,17.942,17.386Z" transform="translate(56.618 -116.011)" fill="#a0616a"/>
    <path id="Trazado_139" data-name="Trazado 139" d="M930.155,540.6l-12.82-4.62a5.629,5.629,0,0,1-3.5-6.743l21.149-77.416,3.224-69.967a15.949,15.949,0,1,1,31.839,1.93l-5.76,76.612-26.947,76.792a5.585,5.585,0,0,1-7.182,3.412Z" transform="translate(57.308 -141.825)" fill="#3f3d56"/>
    <path id="Trazado_140" data-name="Trazado 140" d="M51.358,511.071l13.7,6.714,32.415-49.636-20.215-9.909Z" transform="translate(12.654 111.92)" fill="#ffb8b8"/>
    <path id="Trazado_141" data-name="Trazado 141" d="M185.395,681.729l26.974,13.222h0a19.144,19.144,0,0,1,8.763,25.617l-.274.559-44.165-21.648Z" transform="translate(-122.684 -64.923)" fill="#2f2e41"/>
    <path id="Trazado_142" data-name="Trazado 142" d="M160.452,531.06h15.254l7.256-58.838H160.45Z" transform="translate(39.299 115.335)" fill="#ffb8b8"/>
    <path id="Trazado_143" data-name="Trazado 143" d="M290.7,697.507h30.042a19.144,19.144,0,0,1,19.145,19.145v.621l-49.185,0Z" transform="translate(-94.839 -61.07)" fill="#2f2e41"/>
    <circle id="Elipse_28" data-name="Elipse 28" cx="30.56" cy="30.56" r="30.56" transform="translate(136.426 179.213)" fill="#ffb8b8"/>
    <path id="Trazado_144" data-name="Trazado 144" d="M317.1,735.148a5.6,5.6,0,0,1-5.587-5.355L299.7,572.57a1.867,1.867,0,0,0-3.519-.8L220.613,716.024a5.627,5.627,0,0,1-7.464,2.41L192.084,707.9a5.61,5.61,0,0,1-2.517-7.485l45.09-91.367,29.865-68.44c11.527-22.706,23.768-34.407,37.422-35.773,14.008-1.4,28.967,8.233,45.74,29.447l.137.173,0,.221-2.488,192.057a5.573,5.573,0,0,1-5.077,5.567l-22.61,2.819Q317.369,735.148,317.1,735.148Z" transform="translate(-119.68 -108.16)" fill="#2f2e41"/>
    <path id="Trazado_145" data-name="Trazado 145" d="M245.608,570.327a13.366,13.366,0,0,0,2.947-20.283l4.608-121.756-22.4,2.791L228.878,549.53a13.439,13.439,0,0,0,16.73,20.8Z" transform="translate(-110.876 -126.824)" fill="#ffb8b8"/>
    <path id="Trazado_146" data-name="Trazado 146" d="M259.9,456.345l-30.076-3.418a5.993,5.993,0,0,1-5.115-7.5l7.765-29.162a16.645,16.645,0,1,1,33.065,3.856l1.027,30.063a5.993,5.993,0,0,1-6.667,6.158Z" transform="translate(-111.005 -133.354)" fill="#2f2e41"/>
    <path id="Trazado_147" data-name="Trazado 147" d="M372.9,385.967a13.105,13.105,0,0,0-.3,2.041l-53.45,30.835-12.991-7.479L292.313,429.5l21.712,15.475a9.954,9.954,0,0,0,11.942-.291L381.083,401.2a13.061,13.061,0,1,0-8.182-15.231Z" transform="translate(-94.445 -139.622)" fill="#ffb8b8"/>
    <path id="Trazado_148" data-name="Trazado 148" d="M322.522,416.549l-17.275,22.389a5.6,5.6,0,0,1-8.466.464l-19.556-20.307A15.55,15.55,0,1,1,296.3,394.527l24.528,13.715a5.6,5.6,0,0,1,1.7,8.306Z" transform="translate(-99.599 -135.867)" fill="#2f2e41"/>
    <path id="Trazado_149" data-name="Trazado 149" d="M344.554,572.591,311.39,411.052a30.291,30.291,0,0,0-34.652-23.788l-11.06,1.843a29.661,29.661,0,0,0-19.26,12.017h0a41.421,41.421,0,0,0-6.188,35.224l18.306,65.516-13.585,70.19a4.972,4.972,0,0,0,5.583,5.873c6.8-.973,18.012-2.362,30.889-3.119L288.4,547.9l2.837,26.48c15.817-.443,32.988.332,47.152,4.012a4.981,4.981,0,0,0,6.167-5.8Z" transform="translate(-107.539 -136.945)" fill="#00a884"/>
    <path id="Trazado_150" data-name="Trazado 150" d="M335.465,338.8c-1.824-10.609-10.34-19.4-20.486-23s-21.585-2.428-31.52,1.716a49.414,49.414,0,0,0-24.836,22.236,25.733,25.733,0,0,1-3.715-2.045c-5.883-3.916-10.657-9.491-17.023-12.561-11.223-5.412-24.79-1.814-35.712,4.181s-20.6,14.278-32.141,18.982-26.258,4.937-34.994-3.946a32.017,32.017,0,0,0,46.92,37.789c12.64-7.7,19.623-23.844,33.8-28.094,7.845-2.352,16.27-.458,24.2,1.594a95.713,95.713,0,0,0,14.258,2.949,35.2,35.2,0,0,0,9.2,23.5c9.784,10.3,25.141,13.045,39.346,12.879l.3-.3c-4.349-6.51-7.782-15.537-2.993-21.732,4.727-6.114,14.051-5.214,21.29-7.919C331.44,361.25,337.288,349.4,335.465,338.8Z" transform="translate(-133.286 -154.823)" fill="#2f2e41"/>
    <path id="Trazado_151" data-name="Trazado 151" d="M381.055,714.488H169.534a1.244,1.244,0,1,1,0-2.488H381.055a1.244,1.244,0,1,1,0,2.488Z" transform="translate(-124.736 -57.53)" fill="#ccc"/>
    <path id="Trazado_152" data-name="Trazado 152" d="M1084.055,714.488H872.534a1.244,1.244,0,1,1,0-2.488h211.521a1.244,1.244,0,1,1,0,2.488Z" transform="translate(46.965 -57.53)" fill="#ccc"/>
  </g>
  <path id="Icon_awesome-whatsapp" data-name="Icon awesome-whatsapp" d="M38.181,8.776A22.26,22.26,0,0,0,3.158,35.629L0,47.157l11.8-3.1a22.185,22.185,0,0,0,10.635,2.706h.01A22.467,22.467,0,0,0,44.907,24.513,22.341,22.341,0,0,0,38.181,8.776ZM22.443,43.017a18.463,18.463,0,0,1-9.422-2.576l-.672-.4-7,1.834,1.864-6.826-.441-.7a18.532,18.532,0,1,1,34.372-9.833,18.7,18.7,0,0,1-18.7,18.5ZM32.588,29.164c-.551-.281-3.288-1.624-3.8-1.8s-.882-.281-1.253.281-1.433,1.8-1.764,2.185-.652.421-1.2.14C21.3,28.332,19.156,27.049,17,23.35c-.571-.982.571-.912,1.634-3.037a1.03,1.03,0,0,0-.05-.972c-.14-.281-1.253-3.017-1.714-4.13-.451-1.083-.912-.932-1.253-.952-.321-.02-.692-.02-1.063-.02a2.06,2.06,0,0,0-1.484.692,6.248,6.248,0,0,0-1.945,4.641c0,2.737,1.995,5.383,2.265,5.754s3.919,5.984,9.5,8.4c3.528,1.524,4.912,1.654,6.676,1.393,1.073-.16,3.288-1.343,3.749-2.646a4.65,4.65,0,0,0,.321-2.646C33.51,29.575,33.139,29.435,32.588,29.164Z" transform="translate(332.212 166.816)" fill="#fff"/>
  <path id="Trazado_154" data-name="Trazado 154" d="M451.287,64.359a34.426,34.426,0,0,0-12.5-12.418,33.562,33.562,0,0,0-12.641-4.379V31.157a12.111,12.111,0,0,0,7.468-11.34,12.455,12.455,0,1,0-24.909,0,11.966,11.966,0,0,0,7.3,11.34V47.569a36.092,36.092,0,0,0-11,3.448C397.877,45.6,374.5,27.835,360.817,17.459a13.57,13.57,0,0,0,.574-3.647,13.927,13.927,0,1,0-6.713,11.8l2.887,2.19,39.663,28.578a33.256,33.256,0,0,0-5.612,6.572,30.67,30.67,0,0,0-5.1,16.532v1.254a34.649,34.649,0,0,0,2.168,11.947,31.363,31.363,0,0,0,5.139,8.926l-13.164,13.2a10.635,10.635,0,1,0,6.522,6.8L400.787,108a34.959,34.959,0,0,0,6.046,3.309,35.352,35.352,0,0,0,14.147,2.972h.946a33.881,33.881,0,0,0,28.8-16,31.257,31.257,0,0,0,4.913-16.837v-.308a33.012,33.012,0,0,0-4.352-16.783ZM434.662,92.9c-3.693,4.1-7.938,6.632-12.737,6.632h-.791a17.217,17.217,0,0,1-8.047-2.135,18.6,18.6,0,0,1-7.048-6.421,14.973,14.973,0,0,1-2.935-8.739V81.3a17.9,17.9,0,0,1,2.067-8.7,18.85,18.85,0,0,1,6.562-7.179,16.061,16.061,0,0,1,9.091-2.742h.309a18.423,18.423,0,0,1,8.549,1.97A18.11,18.11,0,0,1,436.4,70.75a19.43,19.43,0,0,1,3.011,8.582c.051.644.076,1.3.076,1.935A16.978,16.978,0,0,1,434.662,92.9Z" transform="translate(497.979 101.321)" fill="#f8761f"/>
</svg>
