<?xml version="1.0" standalone="no"?>
<!DOCTYPE svg PUBLIC "-//W3C//DTD SVG 20010904//EN"
 "http://www.w3.org/TR/2001/REC-SVG-20010904/DTD/svg10.dtd">
<svg version="1.0" xmlns="http://www.w3.org/2000/svg"
 width="2108.000000pt" height="2108.000000pt" viewBox="0 0 2108.000000 2108.000000"
 preserveAspectRatio="xMidYMid meet">
<metadata>
Created by potrace 1.14, written by Peter Selinger 2001-2017
</metadata>
<g transform="translate(0.000000,2108.000000) scale(0.100000,-0.100000)"
fill="#000000" stroke="none">
<path d="M12051 21076 c2 -3 63 -10 133 -16 337 -29 619 -107 921 -255 503
-247 906 -651 1156 -1160 122 -250 203 -519 241 -800 11 -82 13 -1081 13
-5610 0 -5271 -1 -5515 -18 -5625 -24 -154 -51 -275 -88 -395 -213 -693 -719
-1266 -1379 -1566 -214 -97 -424 -159 -683 -202 l-132 -22 -3521 -5 -3521 -5
-1921 -2280 c-1524 -1810 -1918 -2283 -1909 -2294 26 -31 281 -190 421 -262
315 -162 623 -260 991 -316 115 -17 439 -18 7770 -18 6300 0 7668 2 7750 13
849 113 1568 529 2073 1200 365 485 565 1040 602 1667 8 125 10 2466 8 7660
-4 6922 -5 7489 -21 7600 -52 376 -141 675 -291 982 -221 450 -531 820 -943
1125 -342 254 -801 452 -1233 533 -278 52 -85 49 -3374 52 -1678 2 -3048 1
-3045 -1z m-5206 -16476 c399 -33 699 -157 932 -386 106 -104 137 -166 137
-274 0 -58 -5 -86 -22 -122 -76 -155 -257 -225 -402 -157 -30 15 -95 52 -145
84 -297 188 -525 254 -780 226 -251 -28 -438 -114 -600 -276 -172 -171 -280
-381 -320 -625 -26 -150 -17 -399 18 -533 104 -397 380 -688 742 -783 88 -24
120 -27 265 -28 139 0 179 3 254 22 168 42 323 128 451 252 111 107 191 169
254 198 45 21 64 24 125 20 88 -6 141 -32 211 -102 73 -73 99 -133 99 -226 1
-100 -26 -150 -146 -276 -290 -303 -666 -478 -1110 -516 -396 -34 -792 73
-1121 302 -119 83 -342 306 -430 430 -81 114 -186 321 -226 445 -159 495 -106
1046 143 1469 176 298 465 565 768 705 271 126 576 177 903 151z m1992 -31
c43 -16 74 -37 119 -83 103 -104 98 -72 102 -713 l3 -553 764 0 765 0 0 550
c0 530 1 551 21 604 63 169 263 259 434 196 45 -17 75 -38 121 -84 109 -110
99 51 102 -1595 2 -947 -1 -1453 -8 -1489 -20 -111 -91 -206 -187 -253 -70
-34 -189 -38 -265 -9 -71 26 -150 97 -186 164 l-27 51 -3 618 -3 617 -764 0
-765 0 0 -569 c0 -342 -4 -590 -10 -622 -21 -109 -92 -204 -187 -250 -70 -34
-189 -38 -265 -9 -71 26 -145 91 -183 162 l-30 53 -3 1482 c-2 1471 -2 1482
18 1536 23 61 82 134 136 168 85 52 204 63 301 28z m4363 -6 c60 -27 114 -82
149 -151 16 -31 318 -691 672 -1467 l644 -1410 0 -100 c0 -92 -2 -104 -30
-154 -54 -98 -141 -152 -256 -159 -107 -6 -168 15 -234 82 -45 46 -64 82 -199
384 l-149 332 -734 -2 -734 -3 -142 -317 c-79 -174 -155 -334 -170 -356 -53
-82 -137 -122 -252 -122 -83 0 -145 23 -205 77 -61 55 -94 110 -109 181 -15
73 -6 120 49 242 216 483 1288 2813 1307 2841 29 44 101 97 157 115 58 19 179
13 236 -13z m4114 -41 c105 -48 165 -118 192 -223 37 -146 -28 -286 -168 -361
l-43 -23 -512 -3 -513 -3 0 -1234 c0 -858 -3 -1250 -11 -1287 -21 -99 -88
-186 -184 -237 -44 -23 -61 -26 -150 -26 -89 0 -105 3 -151 27 -67 35 -138
115 -163 184 -21 54 -21 68 -21 1314 l0 1260 -498 0 c-583 0 -560 -3 -659 95
-75 75 -98 138 -91 246 11 143 113 261 251 289 23 4 634 7 1357 7 l1315 -2 49
-23z"/>
<path d="M13056 3532 c-10 -17 -448 -996 -453 -1014 -5 -17 22 -18 461 -18
256 0 466 2 466 6 0 5 -460 1027 -465 1032 -2 2 -6 -1 -9 -6z"/>
<path d="M4209 16849 c-165 -22 -306 -94 -434 -223 -77 -77 -98 -106 -137
-186 -74 -152 -80 -185 -85 -500 -6 -306 2 -408 42 -527 38 -115 97 -207 190
-300 70 -69 98 -89 186 -131 186 -90 -161 -82 3481 -82 3529 0 3290 -4 3436
58 231 97 397 302 448 553 23 113 15 696 -10 784 -75 263 -277 462 -545 538
l-76 22 -3215 1 c-1768 1 -3245 -2 -3281 -7z"/>
<path d="M4205 13860 c-183 -27 -363 -128 -481 -270 -56 -68 -128 -212 -151
-305 -15 -60 -18 -118 -18 -390 0 -374 6 -416 87 -577 100 -200 291 -346 516
-393 57 -13 548 -15 3290 -15 3634 0 3296 -8 3482 82 92 44 115 61 195 142 98
99 152 186 196 321 22 66 23 88 27 392 3 257 0 338 -12 402 -29 156 -92 276
-206 392 -117 119 -260 192 -428 218 -81 13 -6412 14 -6497 1z"/>
<path d="M4186 10869 c-172 -28 -349 -130 -456 -261 -66 -82 -134 -217 -157
-315 -15 -67 -18 -123 -18 -393 0 -364 7 -412 80 -558 100 -197 263 -333 480
-399 57 -17 208 -18 3300 -20 3519 -4 3314 -7 3455 50 101 41 171 88 256 172
91 90 148 182 191 310 l28 80 0 365 0 365 -28 80 c-76 224 -236 397 -444 480
-146 59 82 55 -3425 54 -1767 -1 -3235 -5 -3262 -10z"/>
</g>
</svg>
