<svg xmlns="http://www.w3.org/2000/svg" width="844.027" height="631.715" viewBox="0 0 844.027 631.715">
  <path id="Icon_awesome-whatsapp" data-name="Icon awesome-whatsapp" d="M118.5,22.5A69.086,69.086,0,0,0,9.8,105.845L0,141.621l36.616-9.613a68.853,68.853,0,0,0,33.007,8.4h.031c38.047,0,69.717-30.985,69.717-69.063C139.371,52.9,131.531,35.568,118.5,22.5ZM69.654,128.773a57.3,57.3,0,0,1-29.243-8l-2.084-1.244-21.715,5.693L22.4,104.041l-1.369-2.178a57.409,57.409,0,0,1,89.222-71.117c10.826,10.857,17.484,25.261,17.453,40.6,0,31.67-26.412,57.428-58.051,57.428Zm31.483-42.993c-1.711-.871-10.2-5.04-11.791-5.6-1.587-.591-2.738-.871-3.889.871s-4.449,5.6-5.475,6.782c-1,1.151-2.022,1.307-3.733.436C66.108,83.2,59.45,79.215,52.762,67.736c-1.773-3.049,1.773-2.831,5.071-9.426a3.2,3.2,0,0,0-.156-3.018c-.436-.871-3.889-9.364-5.32-12.817-1.4-3.36-2.831-2.893-3.889-2.955-1-.062-2.147-.062-3.3-.062a6.393,6.393,0,0,0-4.6,2.147,19.391,19.391,0,0,0-6.035,14.4c0,8.493,6.191,16.706,7.031,17.857.871,1.151,12.164,18.572,29.492,26.07C82,104.663,86.3,105.067,91.773,104.258c3.329-.5,10.2-4.169,11.635-8.213s1.431-7.5,1-8.213C104,87.055,102.848,86.619,101.137,85.779Z" transform="translate(0 451.158)" fill="#09d261" opacity="0.14"/>
  <g id="Grupo_18" data-name="Grupo 18" transform="translate(51.036 0)">
    <g id="Grupo_7" data-name="Grupo 7" transform="translate(520.53 0)">
      <g id="Grupo_5" data-name="Grupo 5" transform="translate(125.931 549.419)">
        <path id="Trazado_155" data-name="Trazado 155" d="M503.138,454.913H486.653l-7.843-63.587h24.331Z" transform="translate(-453.024 -391.325)" fill="#ffb6b6"/>
        <path id="Trazado_156" data-name="Trazado 156" d="M511.138,456.749l-50.694,0v-.641a19.733,19.733,0,0,1,19.732-19.731h0l9.26-7.025,17.277,7.026h4.425v20.373Z" transform="translate(-460.444 -375.963)" fill="#2f2e41"/>
      </g>
      <g id="Grupo_6" data-name="Grupo 6" transform="translate(52.846 549.419)">
        <path id="Trazado_157" data-name="Trazado 157" d="M451.083,454.913H434.6l-7.841-63.587h24.33Z" transform="translate(-400.969 -391.325)" fill="#ffb6b6"/>
        <path id="Trazado_158" data-name="Trazado 158" d="M459.083,456.749l-50.694,0v-.641a19.733,19.733,0,0,1,19.732-19.731h0l9.26-7.025,17.277,7.026h4.425v20.373Z" transform="translate(-408.389 -375.963)" fill="#2f2e41"/>
      </g>
      <path id="Trazado_159" data-name="Trazado 159" d="M446.41,183.865l95.11,2s17.1,28.032,4.044,67.578l1.462,11.013-6.007,17.02-3,52.06,3,8.009-2,15.017S547.027,455.68,527,505.739l-24.028-1-9.01-130.6,5.006-9.558-1-4L485.956,300.5l-12.014,31.036v17.244l-11.013,12.79s4,118.137-7.008,142.164h-26.9L418.878,343.55l10.012-93.108-2-6.007,3-3-2-10.012,18.521-47.555h0Z" transform="translate(-351.305 74.281)" fill="#2f2e41"/>
      <path id="Trazado_160" data-name="Trazado 160" d="M483.212,55.744l29.034-7.008,8.009,19.022s41.439,22.025,43.441,52.06c0,0,5.616,24.028.61,35.041s-26.03,46.053-26.03,46.053,19.022,61.071,14.016,64.074-124.144-3-124.144-9.01,19.828-69.08,19.828-69.08l4.2-108.125,27.031-10.012,4-13.015h0Z" transform="translate(-347.56 19.689)" fill="#09d261"/>
      <path id="Trazado_161" data-name="Trazado 161" d="M528.411,266.39a12.249,12.249,0,0,1-4.4-18.259L507.858,137.365l22.367.716L541.925,246a12.315,12.315,0,0,1-13.513,20.386h0Z" transform="translate(-315.357 55.495)" fill="#ffb6b6"/>
      <path id="Trazado_162" data-name="Trazado 162" d="M371.576,223.51a12.248,12.248,0,0,1,9-16.483L442.99,114.1l16.093,15.55-63.8,87.826a12.315,12.315,0,0,1-23.7,6.031Z" transform="translate(-370.749 46.097)" fill="#ffb6b6"/>
      <path id="Trazado_164" data-name="Trazado 164" d="M456.159,84.7c10.538-20.006,37.515-24.745,53.7-8.96,4.679,4.563,7.014,9.454,4.379,14.208-9.222,16.637-30.6,34.551-30.6,34.551l-26.323,42.318-6.8,1.951-8.441,19.359L423.988,209.4l-23.958,12.635-14.016-14.016L388.99,190l36.069-48.059s25.952-32.653,29.017-53.281l2.083-3.956h0Z" transform="translate(-364.582 26.79)" fill="#09d261"/>
      <path id="Trazado_163" data-name="Trazado 163" d="M493.99,130.056C487.67,108.346,498.166,86.2,520.778,86.3c6.536.031,11.613,1.927,13.02,7.177,4.925,18.373,7.611,46.108,7.611,46.108l5.843,29.529-3.539,6.131,7.378,19.789-3.579,9.362-.774,47.809-18.021-1-19.856-36.447-7.592-4.515s6.1-58.929-6.03-75.9l-1.25-4.293h0Z" transform="translate(-321.693 34.866)" fill="#08c55b"/>
      <path id="Trazado_165" data-name="Trazado 165" d="M478.477,65.847c.663.08,1.324.14,1.982.17a27.133,27.133,0,0,0,6.016-.335,28.4,28.4,0,1,0-32.641-32.175c-.035.235-.071.461-.1.7a28.41,28.41,0,0,0,24.74,31.646h0Z" transform="translate(-337.308 3.735)" fill="#ffb6b6"/>
      <path id="Trazado_166" data-name="Trazado 166" d="M449.691,36.2c4.031,1.993,10.617-4.273,13.139-.668.41-.779.862-1.533,1.309-2.245.4-.638.983-2,1.653-2.232a10.347,10.347,0,0,0,.219,7.186c3.976,1.486,9.181-1.8,12.861-5.693,5.778-6.1,15.214,9.541,12.983,17.635,2.839-3.467,9-1.512,11.088,2.453s-1.439,7.123-2.193,11.534l5.692-.723c3.591-3.5,3.34-9.391,6.3-13.445,4.939-6.784,6.853-13.706,3.14-20.708-3.294-6.191-3.6-14.2-9.645-17.772,2.64-1.291-6.749.726-4.241-3.481S491.086,3.332,490.21,5.581C486.374.99,482.5-2.038,477.784,1.642c-4.635,3.62-4.156,7.425-9.6,7.084-2.554-.158-2.274,4.6-3.793,6.681s-7.379,3.391-7.664,3.17c-1.55-1.213-6.824,9.112-6.824,9.112s-4.276,6.491-.212,8.511h0Z" transform="translate(-339.564 0)" fill="#2f2e41"/>
    </g>
    <path id="Trazado_167" data-name="Trazado 167" d="M249.537,154.13a172.692,172.692,0,1,1,0,345.383c-95.375,0-227.37-94.561-172.692-172.692S154.162,154.13,249.537,154.13Z" transform="translate(25.864 62.268)" fill="#f2f2f2"/>
    <path id="Trazado_168" data-name="Trazado 168" d="M361.59,159.982a2.811,2.811,0,0,0-2.808,2.808v89.856a2.808,2.808,0,1,0,5.616,0V162.79A2.811,2.811,0,0,0,361.59,159.982Z" transform="translate(144.947 64.632)" fill="#3f3d56"/>
    <path id="Trazado_169" data-name="Trazado 169" d="M25.59,111.982a2.811,2.811,0,0,0-2.808,2.808v22.464a2.808,2.808,0,0,0,5.616,0V114.79A2.811,2.811,0,0,0,25.59,111.982Z" transform="translate(9.204 45.24)" fill="#3f3d56"/>
    <path id="Trazado_170" data-name="Trazado 170" d="M25.59,159.982a2.811,2.811,0,0,0-2.808,2.808v43.524a2.808,2.808,0,1,0,5.616,0V162.79A2.811,2.811,0,0,0,25.59,159.982Z" transform="translate(9.204 64.632)" fill="#00a884"/>
    <path id="Trazado_171" data-name="Trazado 171" d="M25.59,203.982a2.811,2.811,0,0,0-2.808,2.808v43.524a2.808,2.808,0,0,0,5.616,0V206.79A2.811,2.811,0,0,0,25.59,203.982Z" transform="translate(9.204 82.408)" fill="#3f3d56"/>
    <path id="Trazado_172" data-name="Trazado 172" d="M204.963,48.982a2.811,2.811,0,0,0-2.808,2.808V95.314a2.808,2.808,0,1,0,5.616,0V51.79A2.811,2.811,0,0,0,204.963,48.982Z" transform="translate(81.67 19.788)" fill="#3f3d56"/>
    <g id="Grupo_8" data-name="Grupo 8" transform="translate(0 490.253)">
      <path id="Trazado_173" data-name="Trazado 173" d="M511.183,466.311a3.186,3.186,0,0,0,2.309-5.522l-.218-.868.087-.208a8.556,8.556,0,0,1,15.783.059c2.581,6.217,5.868,12.445,6.677,19.018a25.314,25.314,0,0,1-.444,8.705,101.484,101.484,0,0,0,9.231-42.149A97.969,97.969,0,0,0,544,434.418q-.5-4.462-1.4-8.86a102.659,102.659,0,0,0-20.358-43.509,27.32,27.32,0,0,1-11.362-11.789,20.841,20.841,0,0,1-1.9-5.695c.553.073,2.086-8.352,1.669-8.869.771-1.17,2.151-1.751,2.993-2.893,4.187-5.677,9.956-4.686,12.968,3.029,6.433,3.247,6.5,8.632,2.548,13.811-2.511,3.295-2.857,7.753-5.06,11.281.227.29.463.571.689.862a103.32,103.32,0,0,1,10.784,17.085,42.951,42.951,0,0,1,2.564-19.95c2.454-5.921,7.055-10.908,11.106-16.027,4.866-6.148,14.845-3.465,15.7,4.329q.012.113.024.226-.9.509-1.767,1.081a4.322,4.322,0,0,0,1.742,7.865l.088.014a43,43,0,0,1-1.133,6.429c5.2,20.1-6.023,27.42-22.045,27.749-.354.181-.7.363-1.052.535a105.461,105.461,0,0,1,5.677,26.715,100.016,100.016,0,0,1-.073,16.15l.027-.19a26.432,26.432,0,0,1,9.023-15.262c6.944-5.7,16.754-7.8,24.245-12.389a4.96,4.96,0,0,1,7.6,4.826l-.031.2a29.016,29.016,0,0,0-3.255,1.569q-.9.509-1.767,1.081a4.322,4.322,0,0,0,1.742,7.865l.088.014.181.027a43.038,43.038,0,0,1-7.917,12.4c-3.25,17.546-17.207,19.211-32.138,14.1H544.2a105.431,105.431,0,0,1-7.082,20.676h-25.3c-.091-.281-.172-.571-.254-.852a28.744,28.744,0,0,0,7-.417c-1.877-2.3-3.754-4.625-5.631-6.928a1.564,1.564,0,0,1-.118-.136c-.952-1.179-1.913-2.349-2.866-3.527h0a42.1,42.1,0,0,1,1.234-10.726h0Z" transform="translate(205.629 -349.184)" fill="#f2f2f2"/>
      <path id="Trazado_174" data-name="Trazado 174" d="M0,449.232A1.666,1.666,0,0,0,1.671,450.9H791.124a1.671,1.671,0,1,0,0-3.341H1.671A1.666,1.666,0,0,0,0,449.232Z" transform="translate(0 -309.44)" fill="#ccc"/>
    </g>
    <path id="Trazado_175" data-name="Trazado 175" d="M170.341,292.961H73.155v-2.808h97.186a15.329,15.329,0,0,0,15.311-15.312V209.13h2.808v65.711a18.14,18.14,0,0,1-18.119,18.12h0Z" transform="translate(29.554 84.488)" fill="#09d261"/>
    <rect id="Rectángulo_21" data-name="Rectángulo 21" width="221.04" height="2.808" transform="translate(164.294 519.891)" fill="#09d261"/>
    <g id="Grupo_10" data-name="Grupo 10" transform="translate(395.957 218.939)">
      <path id="Trazado_176" data-name="Trazado 176" d="M411.641,295.674H293.576a11.568,11.568,0,0,1-11.555-11.555V167.5a11.568,11.568,0,0,1,11.555-11.555H411.641A11.568,11.568,0,0,1,423.2,167.5V284.119A11.568,11.568,0,0,1,411.641,295.674Z" transform="translate(-282.021 -155.94)" fill="#e6e6e6"/>
      <path id="Trazado_177" data-name="Trazado 177" d="M314.573,158.392a30.1,30.1,0,0,0-30.1,30.1v92.163A10.586,10.586,0,0,0,295.06,291.24h72.193a51.509,51.509,0,0,0,51.509-51.509V168.978a10.586,10.586,0,0,0-10.586-10.586h-93.6Z" transform="translate(-281.03 -154.95)" fill="#fff"/>
      <g id="Grupo_9" data-name="Grupo 9" transform="translate(10.739 32.942)">
        <path id="Trazado_178" data-name="Trazado 178" d="M373.72,183.8h-63.49a2.2,2.2,0,1,1,0-4.393h63.49a2.2,2.2,0,0,1,0,4.393Z" transform="translate(-282.252 -179.403)" fill="#e6e6e6"/>
        <path id="Trazado_179" data-name="Trazado 179" d="M373.72,217.159h-63.49a2.2,2.2,0,1,1,0-4.393h63.49a2.2,2.2,0,0,1,0,4.393Z" transform="translate(-282.252 -165.924)" fill="#e6e6e6"/>
        <path id="Trazado_180" data-name="Trazado 180" d="M406.92,200.488H291.867a2.2,2.2,0,1,1,0-4.393H406.92a2.2,2.2,0,0,1,0,4.393Z" transform="translate(-289.67 -172.659)" fill="#e6e6e6"/>
      </g>
      <path id="Trazado_181" data-name="Trazado 181" d="M386.611,230.725H345.048a2.2,2.2,0,1,1,0-4.393h41.563a2.2,2.2,0,0,1,0,4.393Z" transform="translate(-257.446 -127.502)" fill="#e6e6e6"/>
    </g>
    <g id="Grupo_12" data-name="Grupo 12" transform="translate(174.659 480.082)">
      <path id="Trazado_182" data-name="Trazado 182" d="M227.328,452.9H133.577a9.186,9.186,0,0,1-9.175-9.175V351.115a9.186,9.186,0,0,1,9.175-9.175h93.751a9.186,9.186,0,0,1,9.175,9.175v92.607a9.186,9.186,0,0,1-9.175,9.175h0Z" transform="translate(-124.401 -341.94)" fill="#e6e6e6"/>
      <path id="Trazado_183" data-name="Trazado 183" d="M150.249,343.887a23.9,23.9,0,0,0-23.9,23.9v73.183a8.406,8.406,0,0,0,8.406,8.406h57.326a40.9,40.9,0,0,0,40.9-40.9V352.294a8.406,8.406,0,0,0-8.406-8.406H150.249Z" transform="translate(-123.615 -341.153)" fill="#fff"/>
      <g id="Grupo_11" data-name="Grupo 11" transform="translate(8.529 26.157)">
        <path id="Trazado_184" data-name="Trazado 184" d="M197.217,364.059H146.8a1.744,1.744,0,1,1,0-3.489h50.415a1.744,1.744,0,0,1,0,3.489Z" transform="translate(-124.585 -360.57)" fill="#e6e6e6"/>
        <path id="Trazado_185" data-name="Trazado 185" d="M197.217,390.552H146.8a1.744,1.744,0,1,1,0-3.489h50.415a1.744,1.744,0,0,1,0,3.489Z" transform="translate(-124.585 -349.867)" fill="#e6e6e6"/>
        <path id="Trazado_186" data-name="Trazado 186" d="M223.581,377.315h-91.36a1.744,1.744,0,1,1,0-3.489h91.36a1.744,1.744,0,0,1,0,3.489Z" transform="translate(-130.476 -355.215)" fill="#e6e6e6"/>
      </g>
      <path id="Trazado_187" data-name="Trazado 187" d="M207.453,401.324h-33a1.744,1.744,0,1,1,0-3.489h33a1.744,1.744,0,0,1,0,3.489Z" transform="translate(-104.887 -319.358)" fill="#e6e6e6"/>
    </g>
    <g id="Grupo_14" data-name="Grupo 14" transform="translate(135.941 210.852)">
      <path id="Trazado_188" data-name="Trazado 188" d="M172.943,232.238H103.61a6.793,6.793,0,0,1-6.786-6.786V156.965a6.793,6.793,0,0,1,6.786-6.786h69.333a6.793,6.793,0,0,1,6.786,6.786v68.487a6.793,6.793,0,0,1-6.786,6.786h0Z" transform="translate(-96.824 -150.18)" fill="#e6e6e6"/>
      <path id="Trazado_189" data-name="Trazado 189" d="M115.94,151.619a17.676,17.676,0,0,0-17.676,17.676v54.122a6.217,6.217,0,0,0,6.217,6.217h42.4a30.248,30.248,0,0,0,30.248-30.248v-41.55a6.217,6.217,0,0,0-6.217-6.217H115.94Z" transform="translate(-96.242 -149.598)" fill="#fff"/>
      <g id="Grupo_13" data-name="Grupo 13" transform="translate(6.306 19.344)">
        <path id="Trazado_190" data-name="Trazado 190" d="M150.675,166.537H113.391a1.29,1.29,0,1,1,0-2.58h37.284a1.29,1.29,0,0,1,0,2.58Z" transform="translate(-96.959 -163.957)" fill="#e6e6e6"/>
        <path id="Trazado_191" data-name="Trazado 191" d="M150.675,186.13H113.391a1.29,1.29,0,1,1,0-2.58h37.284a1.29,1.29,0,0,1,0,2.58Z" transform="translate(-96.959 -156.042)" fill="#e6e6e6"/>
        <path id="Trazado_192" data-name="Trazado 192" d="M170.171,176.34H102.606a1.29,1.29,0,1,1,0-2.58h67.565a1.29,1.29,0,0,1,0,2.58Z" transform="translate(-101.316 -159.997)" fill="#e6e6e6"/>
      </g>
      <path id="Trazado_193" data-name="Trazado 193" d="M158.245,194.1H133.837a1.29,1.29,0,1,1,0-2.58h24.408a1.29,1.29,0,0,1,0,2.58Z" transform="translate(-82.393 -133.48)" fill="#e6e6e6"/>
    </g>
    <circle id="Elipse_29" data-name="Elipse 29" cx="14.04" cy="14.04" r="14.04" transform="translate(400.357 351.182)" fill="#09d261"/>
    <circle id="Elipse_30" data-name="Elipse 30" cx="14.04" cy="14.04" r="14.04" transform="translate(202.393 279.578)" fill="#09d261"/>
    <circle id="Elipse_31" data-name="Elipse 31" cx="14.04" cy="14.04" r="14.04" transform="translate(269.785 471.925)" fill="#09d261"/>
    <g id="Grupo_15" data-name="Grupo 15" transform="translate(296.654 75.999)">
      <ellipse id="Elipse_32" data-name="Elipse 32" cx="17.498" cy="17.13" rx="17.498" ry="17.13" transform="translate(0 0.451)" fill="#f2f2f2"/>
      <path id="Trazado_194" data-name="Trazado 194" d="M352.457,65.851H258.27a5.86,5.86,0,1,1,0-11.72h94.187a5.86,5.86,0,1,1,0,11.72Z" transform="translate(-194.681 -54.13)" fill="#f2f2f2"/>
      <path id="Trazado_195" data-name="Trazado 195" d="M425.962,79.978H258.271a5.86,5.86,0,1,1,0-11.72h167.69a5.86,5.86,0,1,1,0,11.72Z" transform="translate(-194.681 -48.423)" fill="#f2f2f2"/>
    </g>
    <g id="Grupo_16" data-name="Grupo 16" transform="translate(49.551 160.239)">
      <ellipse id="Elipse_33" data-name="Elipse 33" cx="11.325" cy="11.086" rx="11.325" ry="11.086" transform="translate(0 0.291)" fill="#f2f2f2"/>
      <path id="Trazado_196" data-name="Trazado 196" d="M126.652,121.716H65.7a3.793,3.793,0,1,1,0-7.585h60.956a3.793,3.793,0,0,1,0,7.585Z" transform="translate(-24.543 -114.13)" fill="#f2f2f2"/>
      <path id="Trazado_197" data-name="Trazado 197" d="M174.224,130.859H65.7a3.793,3.793,0,0,1,0-7.585H174.223a3.793,3.793,0,0,1,0,7.585Z" transform="translate(-24.542 -110.437)" fill="#f2f2f2"/>
    </g>
    <g id="Grupo_17" data-name="Grupo 17" transform="translate(389.318 554.762)">
      <ellipse id="Elipse_34" data-name="Elipse 34" cx="11.325" cy="11.086" rx="11.325" ry="11.086" transform="translate(0 0.291)" fill="#f2f2f2"/>
      <path id="Trazado_198" data-name="Trazado 198" d="M368.652,402.716H307.7a3.793,3.793,0,0,1,0-7.585h60.956a3.793,3.793,0,1,1,0,7.585Z" transform="translate(-266.543 -395.13)" fill="#f2f2f2"/>
      <path id="Trazado_199" data-name="Trazado 199" d="M416.224,411.859H307.7a3.793,3.793,0,1,1,0-7.585H416.224a3.793,3.793,0,1,1,0,7.585Z" transform="translate(-266.542 -391.437)" fill="#f2f2f2"/>
    </g>
    <rect id="Rectángulo_22" data-name="Rectángulo 22" width="3" height="134" transform="translate(261.495 218.858)" fill="#e6e6e6"/>
    <circle id="Elipse_35" data-name="Elipse 35" cx="8.5" cy="8.5" r="8.5" transform="translate(254.495 343.858)" fill="#e6e6e6"/>
    <circle id="Elipse_36" data-name="Elipse 36" cx="8.5" cy="8.5" r="8.5" transform="translate(382.495 440.858)" fill="#e6e6e6"/>
    <ellipse id="Elipse_37" data-name="Elipse 37" cx="8" cy="8.5" rx="8" ry="8.5" transform="translate(155.495 325.858)" fill="#e6e6e6"/>
    <rect id="Rectángulo_23" data-name="Rectángulo 23" width="46.09" height="2.809" transform="matrix(1, -0.03, 0.03, 1, 114.25, 335.517)" fill="#e6e6e6"/>
    <path id="Trazado_200" data-name="Trazado 200" d="M347.317,352.22H277.46V319.97h2.808v29.442h67.049Z" transform="translate(112.093 129.267)" fill="#e6e6e6"/>
    <circle id="Elipse_38" data-name="Elipse 38" cx="8.424" cy="8.424" r="8.424" transform="translate(151.55 417.669)" fill="#e6e6e6"/>
    <path id="Trazado_201" data-name="Trazado 201" d="M182.262,335.734H112.4V303.486h2.808v29.44h67.049Z" transform="translate(45.411 122.607)" fill="#e6e6e6"/>
    <rect id="Rectángulo_24" data-name="Rectángulo 24" width="335.53" height="2.808" transform="translate(105.893 394.039)" fill="#e6e6e6"/>
  </g>
</svg>
